Pacifico.ufo
<glyph name="zero" format="1">
  <advance width="1203"/>
  <unicode hex="0030"/>
  <outline>
    <contour>
      <point x="382" y="505" type="curve" smooth="yes"/>
      <point x="382" y="386"/>
      <point x="396" y="189"/>
      <point x="515" y="189" type="curve" smooth="yes"/>
      <point x="755" y="189"/>
      <point x="852" y="726"/>
      <point x="852" y="939" type="curve" smooth="yes"/>
      <point x="852" y="1058"/>
      <point x="831" y="1230"/>
      <point x="697" y="1230" type="curve" smooth="yes"/>
      <point x="458" y="1230"/>
      <point x="382" y="724"/>
    </contour>
    <contour>
      <point x="703" y="1448" type="curve" smooth="yes"/>
      <point x="1028" y="1448"/>
      <point x="1170" y="1210"/>
      <point x="1170" y="902" type="curve" smooth="yes"/>
      <point x="1170" y="465"/>
      <point x="935" y="-19"/>
      <point x="492" y="-19" type="curve" smooth="yes"/>
      <point x="176" y="-19"/>
      <point x="44" y="252"/>
      <point x="44" y="552" type="curve" smooth="yes"/>
      <point x="44" y="986"/>
      <point x="263" y="1448"/>
    </contour>
  </outline>
</glyph>
<glyph name="three" format="1">
  <advance width="1129"/>
  <unicode hex="0033"/>
  <outline>
    <contour>
      <point x="305.715" y="392.168" type="curve" smooth="yes"/>
      <point x="305.715" y="352.9"/>
      <point x="271.681" y="309.89"/>
      <point x="271.681" y="269.197" type="curve" smooth="yes"/>
      <point x="271.681" y="211.948"/>
      <point x="386.657" y="167.142"/>
      <point x="478.972" y="167.142" type="curve" smooth="yes"/>
      <point x="647.14" y="167.142"/>
      <point x="756.776" y="294.849"/>
      <point x="756.776" y="456.036" type="curve" smooth="yes"/>
      <point x="756.776" y="607.33"/>
      <point x="686.001" y="750.7"/>
      <point x="510.1" y="750.7" type="curve" smooth="yes"/>
      <point x="479.041" y="750.7"/>
      <point x="440.8" y="754.7"/>
      <point x="402.3" y="754.7" type="curve" smooth="yes"/>
      <point x="359.4" y="754.7"/>
      <point x="325.3" y="778.264"/>
      <point x="325.3" y="812.3" type="curve" smooth="yes"/>
      <point x="325.3" y="862.294"/>
      <point x="360.5" y="913.4"/>
      <point x="444.1" y="913.4" type="curve" smooth="yes"/>
      <point x="601.568" y="913.4"/>
      <point x="731.5" y="1002.7"/>
      <point x="731.5" y="1118.7" type="curve" smooth="yes"/>
      <point x="731.5" y="1185.04"/>
      <point x="701.29" y="1258.96"/>
      <point x="571.908" y="1258.96" type="curve" smooth="yes"/>
      <point x="440.892" y="1258.96"/>
      <point x="345.067" y="1148.4"/>
      <point x="292.6" y="1148.4" type="curve" smooth="yes"/>
      <point x="244.2" y="1148.4"/>
      <point x="210.1" y="1206.7"/>
      <point x="210.1" y="1247.4" type="curve" smooth="yes"/>
      <point x="210.1" y="1372.8"/>
      <point x="440" y="1464.1"/>
      <point x="668.8" y="1464.1" type="curve" smooth="yes"/>
      <point x="845.9" y="1464.1"/>
      <point x="1063.7" y="1381.6"/>
      <point x="1063.7" y="1164.9" type="curve" smooth="yes"/>
      <point x="1063.7" y="987.833"/>
      <point x="965.3" y="891.833"/>
      <point x="817.7" y="844.9" type="curve"/>
      <point x="988.702" y="752.524"/>
      <point x="1087.68" y="636.47"/>
      <point x="1087.68" y="451.722" type="curve" smooth="yes"/>
      <point x="1087.68" y="146.171"/>
      <point x="850.966" y="-18.2884"/>
      <point x="500.454" y="-18.2884" type="curve" smooth="yes"/>
      <point x="209.617" y="-18.2884"/>
      <point x="-1.09961" y="137.898"/>
      <point x="-1.09961" y="321.2" type="curve" smooth="yes"/>
      <point x="-1.09961" y="438.196"/>
      <point x="58.1642" y="531.302"/>
      <point x="147.361" y="531.302" type="curve" smooth="yes"/>
      <point x="253.396" y="531.302"/>
      <point x="305.715" y="464.377"/>
    </contour>
  </outline>
</glyph>
<glyph name="semicolon" format="1">
  <advance width="768"/>
  <unicode hex="003B"/>
  <outline>
    <contour>
      <point x="563" y="1025" type="curve" smooth="yes"/>
      <point x="671" y="1025"/>
      <point x="732" y="969"/>
      <point x="732" y="863" type="curve" smooth="yes"/>
      <point x="732" y="748"/>
      <point x="663" y="672"/>
      <point x="544" y="672" type="curve" smooth="yes"/>
      <point x="438" y="672"/>
      <point x="380" y="727"/>
      <point x="380" y="834" type="curve" smooth="yes"/>
      <point x="380" y="949"/>
      <point x="446" y="1025"/>
    </contour>
    <contour>
      <point x="368" y="-191" type="curve" smooth="yes"/>
      <point x="321" y="-191"/>
      <point x="287" y="-158"/>
      <point x="287" y="-109" type="curve" smooth="yes"/>
      <point x="287" y="10"/>
      <point x="347" y="128"/>
      <point x="377" y="237" type="curve" smooth="yes"/>
      <point x="392" y="291"/>
      <point x="445" y="321"/>
      <point x="514" y="321" type="curve" smooth="yes"/>
      <point x="592" y="321"/>
      <point x="671" y="282"/>
      <point x="671" y="205" type="curve" smooth="yes"/>
      <point x="671" y="143"/>
      <point x="631" y="102"/>
      <point x="604" y="60" type="curve" smooth="yes"/>
      <point x="582" y="26"/>
      <point x="580" y="26"/>
      <point x="558" y="-8" type="curve" smooth="yes"/>
      <point x="514" y="-75"/>
      <point x="470" y="-191"/>
    </contour>
  </outline>
</glyph>
<glyph name="B" format="1">
  <advance width="1522"/>
  <unicode hex="0042"/>
  <outline>
    <contour>
      <point x="1178" y="489" type="curve" smooth="yes"/>
      <point x="1178" y="805.435"/>
      <point x="671" y="620.066"/>
      <point x="671" y="892" type="curve" smooth="yes"/>
      <point x="671" y="959"/>
      <point x="696" y="974"/>
      <point x="764" y="974" type="curve" smooth="yes"/>
      <point x="822" y="974"/>
      <point x="862" y="967"/>
      <point x="919" y="967" type="curve" smooth="yes"/>
      <point x="1193.03" y="967"/>
      <point x="1318.5" y="1089.13"/>
      <point x="1318.5" y="1224.72" type="curve" smooth="yes"/>
      <point x="1318.5" y="1393.93"/>
      <point x="1123.11" y="1584.12"/>
      <point x="777.245" y="1584.12" type="curve" smooth="yes"/>
      <point x="540.578" y="1584.12"/>
      <point x="288.244" y="1505.82"/>
      <point x="150" y="1330" type="curve" smooth="yes"/>
      <point x="88.972" y="1252.38"/>
      <point x="34" y="1094"/>
      <point x="-49" y="1094" type="curve" smooth="yes"/>
      <point x="-78" y="1094"/>
      <point x="-93" y="1128"/>
      <point x="-93" y="1195" type="curve" smooth="yes"/>
      <point x="-93" y="1558.95"/>
      <point x="367.28" y="1745.67"/>
      <point x="806.994" y="1745.67" type="curve" smooth="yes"/>
      <point x="1285.15" y="1745.67"/>
      <point x="1568.44" y="1466.56"/>
      <point x="1568.44" y="1218.36" type="curve" smooth="yes"/>
      <point x="1568.44" y="1024.03"/>
      <point x="1394.78" y="848.643"/>
      <point x="1005" y="841" type="curve"/>
      <point x="1246" y="841"/>
      <point x="1402" y="691"/>
      <point x="1402" y="454" type="curve" smooth="yes"/>
      <point x="1402" y="77.6243"/>
      <point x="927.853" y="-87.0934"/>
      <point x="564.07" y="-87.0934" type="curve" smooth="yes"/>
      <point x="337.66" y="-87.0934"/>
      <point x="154" y="-23.2902"/>
      <point x="154" y="93" type="curve"/>
      <point x="154" y="487.159"/>
      <point x="171.774" y="1408"/>
      <point x="531" y="1408" type="curve" smooth="yes"/>
      <point x="580" y="1408"/>
      <point x="620" y="1381"/>
      <point x="653" y="1326" type="curve"/>
      <point x="476" y="1088"/>
      <point x="442" y="674"/>
      <point x="442" y="266" type="curve" smooth="yes"/>
      <point x="442" y="159.867"/>
      <point x="537.318" y="112.954"/>
      <point x="659.349" y="112.954" type="curve" smooth="yes"/>
      <point x="876.414" y="112.954"/>
      <point x="1178" y="261.388"/>
    </contour>
  </outline>
</glyph>
<glyph name="C" format="1">
  <advance width="1480"/>
  <unicode hex="0043"/>
  <outline>
    <contour>
      <point x="1619.12" y="430.561" type="curve" smooth="yes"/>
      <point x="1620.95" y="436.102"/>
      <point x="1621.79" y="441.426"/>
      <point x="1621.79" y="446.501" type="curve" smooth="yes"/>
      <point x="1621.79" y="482.128"/>
      <point x="1580.39" y="505.489"/>
      <point x="1551.23" y="505.489" type="curve" smooth="yes"/>
      <point x="1538.67" y="505.489"/>
      <point x="1525.54" y="502.317"/>
      <point x="1516" y="493" type="curve" smooth="yes"/>
      <point x="1303.35" y="285.398"/>
      <point x="1103.18" y="64"/>
      <point x="750" y="64" type="curve" smooth="yes"/>
      <point x="500" y="64"/>
      <point x="384" y="231"/>
      <point x="384" y="502" type="curve" smooth="yes"/>
      <point x="384" y="914"/>
      <point x="651" y="1568"/>
      <point x="1088" y="1568" type="curve" smooth="yes"/>
      <point x="1232" y="1568"/>
      <point x="1312" y="1486"/>
      <point x="1312" y="1344" type="curve" smooth="yes"/>
      <point x="1312" y="1134"/>
      <point x="1150" y="960"/>
      <point x="945" y="960" type="curve" smooth="yes"/>
      <point x="844" y="960"/>
      <point x="775" y="949"/>
      <point x="775" y="870" type="curve" smooth="yes"/>
      <point x="775" y="758"/>
      <point x="835" y="736"/>
      <point x="961" y="736" type="curve" smooth="yes"/>
      <point x="1268" y="736"/>
      <point x="1536" y="1049"/>
      <point x="1536" y="1363" type="curve" smooth="yes"/>
      <point x="1536" y="1617"/>
      <point x="1371" y="1792"/>
      <point x="1123" y="1792" type="curve" smooth="yes"/>
      <point x="515" y="1792"/>
      <point x="96" y="1096"/>
      <point x="96" y="482" type="curve" smooth="yes"/>
      <point x="96" y="9.01035"/>
      <point x="369.556" y="-174.986"/>
      <point x="686.919" y="-174.986" type="curve" smooth="yes"/>
      <point x="1064.88" y="-174.986"/>
      <point x="1504.97" y="85.9798"/>
    </contour>
  </outline>
</glyph>
<glyph name="H" format="1">
  <advance width="1926"/>
  <unicode hex="0048"/>
  <outline>
    <contour>
      <point x="386.789" y="1543.19" type="curve" smooth="yes"/>
      <point x="361.614" y="1543.19"/>
      <point x="251.077" y="1344.83"/>
      <point x="191.615" y="1344.83" type="curve" smooth="yes"/>
      <point x="168.747" y="1344.83"/>
      <point x="153.434" y="1374.16"/>
      <point x="153.434" y="1455.4" type="curve" smooth="yes"/>
      <point x="153.434" y="1637.57"/>
      <point x="297.897" y="1732.98"/>
      <point x="458.938" y="1732.98" type="curve" smooth="yes"/>
      <point x="660.955" y="1732.98"/>
      <point x="890.608" y="1579.57"/>
      <point x="890.608" y="1266.87" type="curve" smooth="yes"/>
      <point x="890.608" y="1144.15"/>
      <point x="847.705" y="1013.83"/>
      <point x="809" y="906" type="curve"/>
      <point x="958" y="905.286"/>
      <point x="1143" y="904.571"/>
      <point x="1300" y="904" type="curve"/>
      <point x="1370" y="1134"/>
      <point x="1455" y="1381"/>
      <point x="1543" y="1600" type="curve" smooth="yes"/>
      <point x="1568" y="1662"/>
      <point x="1613" y="1725"/>
      <point x="1692" y="1725" type="curve" smooth="yes"/>
      <point x="1757" y="1725"/>
      <point x="1799" y="1689"/>
      <point x="1799" y="1623" type="curve" smooth="yes"/>
      <point x="1799" y="1472"/>
      <point x="1722" y="1351"/>
      <point x="1678" y="1226" type="curve" smooth="yes"/>
      <point x="1643" y="1127"/>
      <point x="1607" y="1021"/>
      <point x="1575" y="919" type="curve"/>
      <point x="1657.61" y="930.667"/>
      <point x="1730.8" y="954"/>
      <point x="1804" y="954" type="curve" smooth="yes"/>
      <point x="1861.33" y="954"/>
      <point x="1890" y="927.94"/>
      <point x="1890" y="851" type="curve" smooth="yes"/>
      <point x="1890" y="741"/>
      <point x="1628" y="759"/>
      <point x="1525" y="750" type="curve"/>
      <point x="1463" y="532"/>
      <point x="1422" y="371"/>
      <point x="1422" y="275" type="curve" smooth="yes"/>
      <point x="1422" y="207"/>
      <point x="1443" y="171"/>
      <point x="1491" y="171" type="curve" smooth="yes"/>
      <point x="1741.69" y="171"/>
      <point x="1890.75" y="351.652"/>
      <point x="2025" y="488" type="curve" smooth="yes"/>
      <point x="2037" y="500"/>
      <point x="2052" y="506"/>
      <point x="2068" y="506" type="curve" smooth="yes"/>
      <point x="2104" y="506"/>
      <point x="2141" y="476"/>
      <point x="2141" y="420" type="curve" smooth="yes"/>
      <point x="2141" y="378"/>
      <point x="2125.7" y="315.382"/>
      <point x="2060" y="249" type="curve" smooth="yes"/>
      <point x="1927.12" y="114.732"/>
      <point x="1706.68" y="-64"/>
      <point x="1455" y="-64" type="curve" smooth="yes"/>
      <point x="1282" y="-64"/>
      <point x="1152" y="41"/>
      <point x="1152" y="217" type="curve" smooth="yes"/>
      <point x="1152" y="399.368"/>
      <point x="1207.06" y="591.39"/>
      <point x="1247" y="744" type="curve"/>
      <point x="1074" y="733.347"/>
      <point x="916" y="723.878"/>
      <point x="745" y="715" type="curve"/>
      <point x="663.625" y="526.599"/>
      <point x="580.728" y="339.148"/>
      <point x="493" y="161" type="curve" smooth="yes"/>
      <point x="436.598" y="46.4659"/>
      <point x="353.24" y="-93"/>
      <point x="224" y="-93" type="curve" smooth="yes"/>
      <point x="164.737" y="-93"/>
      <point x="88.9912" y="-54.3206"/>
      <point x="88.9912" y="-6.02539" type="curve" smooth="yes"/>
      <point x="88.9912" y="2.72502"/>
      <point x="91.4779" y="11.7911"/>
      <point x="97" y="21" type="curve" smooth="yes"/>
      <point x="216.608" y="192.795"/>
      <point x="358.681" y="401.259"/>
      <point x="463" y="705" type="curve"/>
      <point x="273.471" y="705"/>
      <point x="103" y="772.16"/>
      <point x="103" y="935" type="curve" smooth="yes"/>
      <point x="103" y="964"/>
      <point x="113" y="979"/>
      <point x="134" y="979" type="curve" smooth="yes"/>
      <point x="176" y="979"/>
      <point x="206" y="929"/>
      <point x="235" y="893" type="curve"/>
      <point x="301" y="896"/>
      <point x="360" y="897"/>
      <point x="430" y="897" type="curve" smooth="yes"/>
      <point x="526" y="897" type="line"/>
      <point x="577.765" y="986.153"/>
      <point x="618.83" y="1116.57"/>
      <point x="618.83" y="1234.91" type="curve" smooth="yes"/>
      <point x="618.83" y="1399.83"/>
      <point x="560.034" y="1543.19"/>
    </contour>
  </outline>
</glyph>
<glyph name="K" format="1">
  <advance width="1880"/>
  <unicode hex="004B"/>
  <outline>
    <contour>
      <point x="1531.95" y="-64.2094" type="curve" smooth="yes"/>
      <point x="1084.07" y="-64.2094"/>
      <point x="986.203" y="520.238"/>
      <point x="907" y="762" type="curve"/>
      <point x="812.265" y="372.428"/>
      <point x="657.121" y="-64"/>
      <point x="214" y="-64" type="curve" smooth="yes"/>
      <point x="121" y="-64"/>
      <point x="-96" y="-49"/>
      <point x="-96" y="36" type="curve" smooth="yes"/>
      <point x="-96" y="98"/>
      <point x="-31" y="196"/>
      <point x="31" y="196" type="curve" smooth="yes"/>
      <point x="78" y="196"/>
      <point x="122" y="160"/>
      <point x="179" y="160" type="curve" smooth="yes"/>
      <point x="491" y="160"/>
      <point x="594" y="599"/>
      <point x="653" y="864" type="curve" smooth="yes"/>
      <point x="696" y="1056"/>
      <point x="727" y="1274"/>
      <point x="749" y="1485" type="curve"/>
      <point x="761" y="1568" type="line"/>
      <point x="472" y="1568"/>
      <point x="260" y="1380"/>
      <point x="260" y="1097" type="curve" smooth="yes"/>
      <point x="260" y="1043"/>
      <point x="197" y="1024"/>
      <point x="136" y="1024" type="curve" smooth="yes"/>
      <point x="56" y="1024"/>
      <point x="-28" y="1040"/>
      <point x="-28" y="1111" type="curve" smooth="yes"/>
      <point x="-28" y="1120" type="line" smooth="yes"/>
      <point x="-28" y="1563"/>
      <point x="453.214" y="1728"/>
      <point x="895" y="1728" type="curve" smooth="yes"/>
      <point x="968" y="1728"/>
      <point x="1021" y="1702"/>
      <point x="1021" y="1632" type="curve" smooth="yes"/>
      <point x="1021" y="1409"/>
      <point x="993.895" y="1195"/>
      <point x="949" y="992" type="curve"/>
      <point x="1309.49" y="1210"/>
      <point x="1469.02" y="1331.83"/>
      <point x="1644" y="1536" type="curve" smooth="yes"/>
      <point x="1726.02" y="1631.7"/>
      <point x="1751.45" y="1706.59"/>
      <point x="1825.7" y="1706.59" type="curve" smooth="yes"/>
      <point x="1897.97" y="1706.59"/>
      <point x="1963.86" y="1660.24"/>
      <point x="1963.86" y="1589.47" type="curve" smooth="yes"/>
      <point x="1963.86" y="1553.03"/>
      <point x="1942.88" y="1510.97"/>
      <point x="1930" y="1481" type="curve" smooth="yes"/>
      <point x="1850.01" y="1303.93"/>
      <point x="1615.51" y="1084.54"/>
      <point x="1101" y="860" type="curve"/>
      <point x="1261.93" y="552.772"/>
      <point x="1359.92" y="156.254"/>
      <point x="1582.74" y="156.254" type="curve" smooth="yes"/>
      <point x="1583.3" y="156.254"/>
      <point x="1583.86" y="156.262"/>
      <point x="1584.42" y="156.262" type="curve" smooth="yes"/>
      <point x="1710.33" y="156.262"/>
      <point x="1821.58" y="244.65"/>
      <point x="1899" y="306" type="curve" smooth="yes"/>
      <point x="1920.83" y="323.301"/>
      <point x="1939.84" y="329.918"/>
      <point x="1955.4" y="329.918" type="curve" smooth="yes"/>
      <point x="2008.24" y="329.918"/>
      <point x="2025.46" y="248.143"/>
      <point x="2025.46" y="188.868" type="curve" smooth="yes"/>
      <point x="2025.46" y="159.474"/>
      <point x="2021.23" y="135.613"/>
      <point x="2015" y="130" type="curve" smooth="yes"/>
      <point x="1887.76" y="15.3083"/>
      <point x="1733.11" y="-64.2094"/>
    </contour>
  </outline>
</glyph>
<glyph name="O" format="1">
  <advance width="1699"/>
  <unicode hex="004F"/>
  <outline>
    <contour>
      <point x="1435" y="1036" type="curve" smooth="yes"/>
      <point x="1435" y="1297"/>
      <point x="1333" y="1509"/>
      <point x="1068" y="1509" type="curve" smooth="yes"/>
      <point x="620" y="1509"/>
      <point x="411" y="969"/>
      <point x="411" y="587" type="curve" smooth="yes"/>
      <point x="411" y="356"/>
      <point x="543" y="159"/>
      <point x="825" y="159" type="curve" smooth="yes"/>
      <point x="1266" y="159"/>
      <point x="1435" y="682"/>
    </contour>
    <contour>
      <point x="154" y="589" type="curve" smooth="yes"/>
      <point x="154" y="1172"/>
      <point x="493" y="1730"/>
      <point x="1054" y="1730" type="curve" smooth="yes"/>
      <point x="1475" y="1730"/>
      <point x="1691" y="1420"/>
      <point x="1691" y="997" type="curve" smooth="yes"/>
      <point x="1691" y="495"/>
      <point x="1390" y="-66"/>
      <point x="801" y="-66" type="curve" smooth="yes"/>
      <point x="377" y="-66"/>
      <point x="154" y="230"/>
    </contour>
  </outline>
</glyph>
<glyph name="S" format="1">
  <advance width="1558"/>
  <unicode hex="0053"/>
  <outline>
    <contour>
      <point x="369" y="366" type="curve" smooth="yes"/>
      <point x="369" y="155"/>
      <point x="572" y="85"/>
      <point x="784" y="85" type="curve" smooth="yes"/>
      <point x="1007" y="85"/>
      <point x="1236" y="180"/>
      <point x="1236" y="366" type="curve" smooth="yes"/>
      <point x="1236" y="607"/>
      <point x="941" y="705"/>
      <point x="781" y="790" type="curve"/>
      <point x="597" y="891"/>
      <point x="336" y="1015"/>
      <point x="336" y="1304" type="curve" smooth="yes"/>
      <point x="336" y="1621"/>
      <point x="660" y="1760"/>
      <point x="988" y="1760" type="curve" smooth="yes"/>
      <point x="1266" y="1760"/>
      <point x="1542" y="1604"/>
      <point x="1542" y="1330" type="curve" smooth="yes"/>
      <point x="1542" y="1205"/>
      <point x="1451" y="1034"/>
      <point x="1329" y="1034" type="curve" smooth="yes"/>
      <point x="1287" y="1034"/>
      <point x="1261" y="1060"/>
      <point x="1261" y="1104" type="curve" smooth="yes"/>
      <point x="1261" y="1190"/>
      <point x="1317" y="1240"/>
      <point x="1317" y="1331" type="curve" smooth="yes"/>
      <point x="1317" y="1507"/>
      <point x="1120" y="1551"/>
      <point x="948" y="1551" type="curve" smooth="yes"/>
      <point x="779" y="1551"/>
      <point x="593" y="1485"/>
      <point x="593" y="1326" type="curve" smooth="yes"/>
      <point x="593" y="1109"/>
      <point x="891" y="1020"/>
      <point x="1042" y="944" type="curve"/>
      <point x="1240" y="837"/>
      <point x="1492" y="702"/>
      <point x="1492" y="386" type="curve" smooth="yes"/>
      <point x="1492" y="33"/>
      <point x="1140" y="-128"/>
      <point x="770" y="-128" type="curve" smooth="yes"/>
      <point x="428" y="-128"/>
      <point x="114" y="25"/>
      <point x="114" y="365" type="curve" smooth="yes"/>
      <point x="114" y="497"/>
      <point x="194" y="624"/>
      <point x="319" y="624" type="curve" smooth="yes"/>
      <point x="364" y="624"/>
      <point x="394" y="599"/>
      <point x="394" y="552" type="curve" smooth="yes"/>
      <point x="394" y="488"/>
      <point x="369" y="438"/>
    </contour>
  </outline>
</glyph>
<glyph name="c" format="1">
  <advance width="756"/>
  <unicode hex="0063"/>
  <outline>
    <contour>
      <point x="474" y="960" type="curve" smooth="yes"/>
      <point x="632.939" y="960"/>
      <point x="767.543" y="877.509"/>
      <point x="767.543" y="739.451" type="curve" smooth="yes"/>
      <point x="767.543" y="681.496"/>
      <point x="724.359" y="649.164"/>
      <point x="677.636" y="649.164" type="curve" smooth="yes"/>
      <point x="577.311" y="649.164"/>
      <point x="590.263" y="783.901"/>
      <point x="463.702" y="783.901" type="curve" smooth="yes"/>
      <point x="402.382" y="783.901"/>
      <point x="320" y="681.877"/>
      <point x="320" y="414" type="curve" smooth="yes"/>
      <point x="320" y="296"/>
      <point x="360" y="192"/>
      <point x="480" y="192" type="curve" smooth="yes"/>
      <point x="659" y="192"/>
      <point x="771" y="343"/>
      <point x="855" y="447" type="curve" smooth="yes"/>
      <point x="873" y="469"/>
      <point x="888" y="477"/>
      <point x="901" y="477" type="curve" smooth="yes"/>
      <point x="927" y="477"/>
      <point x="952" y="418"/>
      <point x="952" y="379" type="curve" smooth="yes"/>
      <point x="952" y="353"/>
      <point x="946" y="327"/>
      <point x="934" y="310" type="curve" smooth="yes"/>
      <point x="857" y="200"/>
      <point x="685" y="0"/>
      <point x="437" y="0" type="curve" smooth="yes"/>
      <point x="199" y="0"/>
      <point x="64" y="177"/>
      <point x="64" y="413" type="curve" smooth="yes"/>
      <point x="64" y="682"/>
      <point x="209" y="960"/>
    </contour>
  </outline>
</glyph>
<glyph name="e" format="1">
  <advance width="740"/>
  <unicode hex="0065"/>
  <outline>
    <contour>
      <point x="543" y="678" type="curve" smooth="yes"/>
      <point x="543" y="731"/>
      <point x="518" y="771"/>
      <point x="470" y="771" type="curve" smooth="yes"/>
      <point x="341" y="771"/>
      <point x="294" y="573"/>
      <point x="294" y="437" type="curve"/>
      <point x="374" y="470"/>
      <point x="543" y="558"/>
    </contour>
    <contour>
      <point x="785" y="181" type="curve"/>
      <point x="663.93" y="82.8397"/>
      <point x="512.402" y="21.1289"/>
      <point x="378.434" y="21.1289" type="curve" smooth="yes"/>
      <point x="198.353" y="21.1289"/>
      <point x="50" y="132.634"/>
      <point x="50" y="417" type="curve"/>
      <point x="50" y="687"/>
      <point x="190" y="959"/>
      <point x="458" y="959" type="curve" smooth="yes"/>
      <point x="612" y="959"/>
      <point x="721" y="863"/>
      <point x="721" y="709" type="curve" smooth="yes"/>
      <point x="721" y="486"/>
      <point x="497" y="340"/>
      <point x="317" y="290" type="curve"/>
      <point x="339.612" y="215.884"/>
      <point x="387.07" y="189.295"/>
      <point x="443.456" y="189.295" type="curve" smooth="yes"/>
      <point x="557.194" y="189.295"/>
      <point x="707.258" y="297.48"/>
      <point x="763" y="342" type="curve"/>
      <point x="783.55" y="361.34"/>
      <point x="803.236" y="369.806"/>
      <point x="819.586" y="369.806" type="curve" smooth="yes"/>
      <point x="845.005" y="369.806"/>
      <point x="862.361" y="349.343"/>
      <point x="862.361" y="317.461" type="curve" smooth="yes"/>
      <point x="862.361" y="281.966"/>
      <point x="840.848" y="232.318"/>
    </contour>
  </outline>
</glyph>
<glyph name="f" format="1">
  <advance width="687"/>
  <unicode hex="0066"/>
  <outline>
    <contour>
      <point x="795" y="1529" type="curve" smooth="yes"/>
      <point x="795" y="1583"/>
      <point x="786" y="1631"/>
      <point x="745" y="1631" type="curve" smooth="yes"/>
      <point x="516" y="1631"/>
      <point x="356" y="775"/>
      <point x="330" y="686" type="curve"/>
      <point x="486" y="879"/>
      <point x="795" y="1266"/>
    </contour>
    <contour>
      <point x="302" y="-379" type="curve" smooth="yes"/>
      <point x="421" y="-379"/>
      <point x="422" y="-173"/>
      <point x="422" y="-62" type="curve" smooth="yes"/>
      <point x="422" y="-57" type="line" smooth="yes"/>
      <point x="422" y="187"/>
      <point x="358" y="384"/>
      <point x="286" y="522" type="curve"/>
      <point x="277" y="330"/>
      <point x="259" y="144"/>
      <point x="259" y="-47" type="curve" smooth="yes"/>
      <point x="259" y="-187"/>
      <point x="263" y="-379"/>
    </contour>
    <contour>
      <point x="990" y="652" type="curve" smooth="yes"/>
      <point x="990" y="453"/>
      <point x="716" y="434"/>
      <point x="514" y="427" type="curve"/>
      <point x="570" y="305"/>
      <point x="633" y="154"/>
      <point x="633" y="-29" type="curve" smooth="yes"/>
      <point x="633" y="-267"/>
      <point x="530" y="-604"/>
      <point x="270" y="-604" type="curve" smooth="yes"/>
      <point x="62" y="-604"/>
      <point x="34" y="-276"/>
      <point x="34" y="-38" type="curve" smooth="yes"/>
      <point x="34" y="521"/>
      <point x="226" y="1856"/>
      <point x="782" y="1856" type="curve" smooth="yes"/>
      <point x="907" y="1856"/>
      <point x="982" y="1762"/>
      <point x="982" y="1624" type="curve" smooth="yes"/>
      <point x="982" y="1243"/>
      <point x="642" y="833"/>
      <point x="445" y="603" type="curve"/>
      <point x="474" y="593"/>
      <point x="520" y="587"/>
      <point x="559" y="587" type="curve" smooth="yes"/>
      <point x="726" y="587"/>
      <point x="798" y="638"/>
      <point x="936" y="715" type="curve" smooth="yes"/>
      <point x="943" y="719"/>
      <point x="948" y="721"/>
      <point x="954" y="721" type="curve" smooth="yes"/>
      <point x="977" y="721"/>
      <point x="990" y="691"/>
    </contour>
  </outline>
</glyph>
<glyph name="h" format="1">
  <advance width="999"/>
  <unicode hex="0068"/>
  <outline>
    <contour>
      <point x="314" y="710" type="curve"/>
      <point x="431.084" y="982.662"/>
      <point x="622" y="1295.3"/>
      <point x="622" y="1653" type="curve" smooth="yes"/>
      <point x="622" y="1704"/>
      <point x="615" y="1729"/>
      <point x="602" y="1729" type="curve" smooth="yes"/>
      <point x="523.384" y="1729"/>
      <point x="469.978" y="1507.23"/>
      <point x="435" y="1397" type="curve" smooth="yes"/>
      <point x="370.673" y="1194.27"/>
      <point x="333" y="952"/>
    </contour>
    <contour>
      <point x="861" y="236" type="curve" smooth="yes"/>
      <point x="994.377" y="236"/>
      <point x="1066.68" y="407.105"/>
      <point x="1175.36" y="407.105" type="curve" smooth="yes"/>
      <point x="1213.82" y="407.105"/>
      <point x="1225.32" y="368.131"/>
      <point x="1225.32" y="324.962" type="curve" smooth="yes"/>
      <point x="1225.32" y="274.692"/>
      <point x="1210.48" y="217.883"/>
      <point x="1203" y="212" type="curve" smooth="yes"/>
      <point x="1102.75" y="133.15"/>
      <point x="960" y="0"/>
      <point x="791" y="0" type="curve" smooth="yes"/>
      <point x="661" y="0"/>
      <point x="577" y="100"/>
      <point x="577" y="226" type="curve" smooth="yes"/>
      <point x="577" y="384"/>
      <point x="636" y="534"/>
      <point x="687" y="648" type="curve" smooth="yes"/>
      <point x="694" y="663"/>
      <point x="698" y="672"/>
      <point x="700" y="674" type="curve"/>
      <point x="679" y="677" type="line"/>
      <point x="478.895" y="548.361"/>
      <point x="391.624" y="250.123"/>
      <point x="262" y="44" type="curve" smooth="yes"/>
      <point x="246" y="19"/>
      <point x="230" y="0"/>
      <point x="192" y="0" type="curve" smooth="yes"/>
      <point x="97" y="0"/>
      <point x="95" y="126"/>
      <point x="95" y="223" type="curve" smooth="yes"/>
      <point x="95" y="772"/>
      <point x="131" y="1357"/>
      <point x="342" y="1706" type="curve" smooth="yes"/>
      <point x="408" y="1816"/>
      <point x="505" y="1920"/>
      <point x="665" y="1920" type="curve" smooth="yes"/>
      <point x="788" y="1920"/>
      <point x="826" y="1836"/>
      <point x="826" y="1699" type="curve" smooth="yes"/>
      <point x="826" y="1266.98"/>
      <point x="591.526" y="918.96"/>
      <point x="431" y="636" type="curve"/>
      <point x="451" y="622" type="line"/>
      <point x="536" y="734"/>
      <point x="639" y="865"/>
      <point x="758" y="942" type="curve" smooth="yes"/>
      <point x="794" y="966"/>
      <point x="829" y="978"/>
      <point x="861" y="978" type="curve" smooth="yes"/>
      <point x="920" y="978"/>
      <point x="948" y="931"/>
      <point x="948" y="868" type="curve" smooth="yes"/>
      <point x="948" y="673"/>
      <point x="827" y="503"/>
      <point x="827" y="301" type="curve" smooth="yes"/>
      <point x="827" y="269"/>
      <point x="832" y="236"/>
    </contour>
  </outline>
</glyph>
<glyph name="j" format="1">
  <advance width="572"/>
  <unicode hex="006A"/>
  <outline>
    <contour>
      <point x="413" y="1089" type="curve" smooth="yes"/>
      <point x="306" y="1089"/>
      <point x="241" y="1140"/>
      <point x="241" y="1241" type="curve" smooth="yes"/>
      <point x="241" y="1345"/>
      <point x="327" y="1408"/>
      <point x="437" y="1408" type="curve" smooth="yes"/>
      <point x="535" y="1408"/>
      <point x="607" y="1366"/>
      <point x="607" y="1268" type="curve" smooth="yes"/>
      <point x="607" y="1155"/>
      <point x="529" y="1089"/>
    </contour>
    <contour>
      <point x="307" y="-384" type="curve" smooth="yes"/>
      <point x="399" y="-384"/>
      <point x="403" y="-187"/>
      <point x="403" y="-68" type="curve" smooth="yes"/>
      <point x="403" y="-32" type="line" smooth="yes"/>
      <point x="403" y="147"/>
      <point x="348" y="299"/>
      <point x="305" y="447" type="curve"/>
      <point x="271" y="246"/>
      <point x="243" y="39"/>
      <point x="243" y="-192" type="curve" smooth="yes"/>
      <point x="243" y="-258"/>
      <point x="254" y="-384"/>
    </contour>
    <contour>
      <point x="507" y="384" type="curve"/>
      <point x="552" y="267"/>
      <point x="595" y="128"/>
      <point x="595" y="-32" type="curve" smooth="yes"/>
      <point x="595" y="-281"/>
      <point x="526" y="-608"/>
      <point x="275" y="-608" type="curve" smooth="yes"/>
      <point x="32" y="-608"/>
      <point x="19" y="-258"/>
      <point x="19" y="0" type="curve" smooth="yes"/>
      <point x="19" y="278"/>
      <point x="93" y="592"/>
      <point x="170" y="820" type="curve" smooth="yes"/>
      <point x="204" y="922"/>
      <point x="239" y="960"/>
      <point x="372" y="960" type="curve" smooth="yes"/>
      <point x="413" y="960"/>
      <point x="438" y="932"/>
      <point x="438" y="895" type="curve" smooth="yes"/>
      <point x="438" y="832"/>
      <point x="409" y="756"/>
      <point x="391" y="704" type="curve" smooth="yes"/>
      <point x="335" y="544" type="line"/>
      <point x="554" y="579"/>
      <point x="705" y="593"/>
      <point x="883" y="672" type="curve" smooth="yes"/>
      <point x="891" y="676"/>
      <point x="899" y="677"/>
      <point x="905" y="677" type="curve" smooth="yes"/>
      <point x="930" y="677"/>
      <point x="941" y="651"/>
      <point x="941" y="618" type="curve" smooth="yes"/>
      <point x="941" y="426"/>
      <point x="686" y="386"/>
    </contour>
  </outline>
</glyph>
<glyph name="k" format="1">
  <advance width="997"/>
  <unicode hex="006B"/>
  <outline>
    <contour>
      <point x="631" y="1650" type="curve" smooth="yes"/>
      <point x="631" y="1676"/>
      <point x="616" y="1685"/>
      <point x="593" y="1685" type="curve" smooth="yes"/>
      <point x="457" y="1685"/>
      <point x="340" y="1108"/>
      <point x="318" y="885" type="curve"/>
      <point x="423" y="1169"/>
      <point x="502" y="1247"/>
      <point x="602" y="1523" type="curve" smooth="yes"/>
      <point x="616" y="1562"/>
      <point x="631" y="1607"/>
    </contour>
    <contour>
      <point x="189" y="-11" type="curve" smooth="yes"/>
      <point x="100" y="-11"/>
      <point x="83" y="132"/>
      <point x="83" y="230" type="curve" smooth="yes"/>
      <point x="83" y="776"/>
      <point x="147" y="1347"/>
      <point x="356" y="1698" type="curve" smooth="yes"/>
      <point x="416" y="1799"/>
      <point x="507" y="1907"/>
      <point x="660" y="1907" type="curve" smooth="yes"/>
      <point x="793" y="1907"/>
      <point x="832" y="1817"/>
      <point x="832" y="1685" type="curve" smooth="yes"/>
      <point x="832" y="1320"/>
      <point x="596" y="1106"/>
      <point x="459" y="862" type="curve"/>
      <point x="326" y="672" type="line"/>
      <point x="294" y="399" type="line"/>
      <point x="408" y="627"/>
      <point x="582" y="941"/>
      <point x="818" y="941" type="curve" smooth="yes"/>
      <point x="948" y="941"/>
      <point x="1053" y="857"/>
      <point x="1053" y="726" type="curve" smooth="yes"/>
      <point x="1053" y="540"/>
      <point x="922" y="411"/>
      <point x="764" y="320" type="curve" smooth="yes"/>
      <point x="722" y="296"/>
      <point x="699" y="261"/>
      <point x="699" y="232" type="curve" smooth="yes"/>
      <point x="699" y="205"/>
      <point x="718" y="184"/>
      <point x="760" y="184" type="curve" smooth="yes"/>
      <point x="926" y="184"/>
      <point x="1097" y="365"/>
      <point x="1169" y="426" type="curve" smooth="yes"/>
      <point x="1172" y="430"/>
      <point x="1175" y="431"/>
      <point x="1179" y="431" type="curve" smooth="yes"/>
      <point x="1194" y="431"/>
      <point x="1215" y="347"/>
      <point x="1215" y="286" type="curve" smooth="yes"/>
      <point x="1215" y="263"/>
      <point x="1211" y="243"/>
      <point x="1199" y="231" type="curve" smooth="yes"/>
      <point x="1087" y="125"/>
      <point x="955" y="-1"/>
      <point x="732" y="-1" type="curve" smooth="yes"/>
      <point x="611" y="-1"/>
      <point x="482" y="76"/>
      <point x="482" y="195" type="curve" smooth="yes"/>
      <point x="482" y="380"/>
      <point x="664" y="453"/>
      <point x="778" y="548" type="curve" smooth="yes"/>
      <point x="816" y="579"/>
      <point x="831" y="613"/>
      <point x="831" y="641" type="curve" smooth="yes"/>
      <point x="831" y="679"/>
      <point x="804" y="707"/>
      <point x="760" y="707" type="curve" smooth="yes"/>
      <point x="665" y="707"/>
      <point x="568" y="551"/>
      <point x="530" y="486" type="curve" smooth="yes"/>
      <point x="453" y="354"/>
      <point x="299" y="-11"/>
    </contour>
  </outline>
</glyph>
<glyph name="n" format="1">
  <advance width="947"/>
  <unicode hex="006E"/>
  <outline>
    <contour>
      <point x="1000.21" y="166.448" type="curve" smooth="yes"/>
      <point x="1000.21" y="68.8914"/>
      <point x="888.214" y="-12"/>
      <point x="792" y="-12" type="curve" smooth="yes"/>
      <point x="647.238" y="-12"/>
      <point x="592" y="104"/>
      <point x="592" y="264" type="curve" smooth="yes"/>
      <point x="592" y="378"/>
      <point x="606" y="485"/>
      <point x="622" y="591" type="curve"/>
      <point x="344" y="71" type="line"/>
      <point x="322" y="27"/>
      <point x="297" y="0"/>
      <point x="241" y="0" type="curve" smooth="yes"/>
      <point x="132" y="0"/>
      <point x="114" y="100"/>
      <point x="114" y="209" type="curve" smooth="yes"/>
      <point x="114" y="416.621"/>
      <point x="125.551" y="960"/>
      <point x="326" y="960" type="curve" smooth="yes"/>
      <point x="367.186" y="960"/>
      <point x="396.36" y="925.704"/>
      <point x="396.36" y="874.673" type="curve" smooth="yes"/>
      <point x="396.36" y="747.228"/>
      <point x="347.001" y="547.904"/>
      <point x="332" y="464" type="curve"/>
      <point x="408.994" y="612.156"/>
      <point x="532.713" y="960"/>
      <point x="740" y="960" type="curve" smooth="yes"/>
      <point x="817" y="960"/>
      <point x="849" y="886"/>
      <point x="849" y="802" type="curve" smooth="yes"/>
      <point x="849" y="620"/>
      <point x="793" y="412"/>
      <point x="793" y="300" type="curve" smooth="yes"/>
      <point x="793" y="225"/>
      <point x="812" y="187"/>
      <point x="846" y="187" type="curve" smooth="yes"/>
      <point x="888.528" y="187"/>
      <point x="906.686" y="215.113"/>
      <point x="947.223" y="215.113" type="curve" smooth="yes"/>
      <point x="974.682" y="215.113"/>
      <point x="1000.21" y="201.422"/>
    </contour>
  </outline>
</glyph>
<glyph name="o" format="1">
  <advance width="833"/>
  <unicode hex="006F"/>
  <outline>
    <contour>
      <point x="449" y="641" type="curve" smooth="yes"/>
      <point x="449" y="695.874"/>
      <point x="509" y="727.416"/>
      <point x="509" y="762" type="curve" smooth="yes"/>
      <point x="509" y="766"/>
      <point x="504" y="768"/>
      <point x="494" y="768" type="curve" smooth="yes"/>
      <point x="354" y="768"/>
      <point x="261" y="588"/>
      <point x="261" y="446" type="curve" smooth="yes"/>
      <point x="261" y="313"/>
      <point x="304" y="192"/>
      <point x="436" y="192" type="curve" smooth="yes"/>
      <point x="545" y="192"/>
      <point x="611" y="352"/>
      <point x="611" y="461" type="curve"/>
      <point x="545" y="498"/>
      <point x="449" y="549"/>
    </contour>
    <contour>
      <point x="821.614" y="579.388" type="curve" smooth="yes"/>
      <point x="867.052" y="579.388"/>
      <point x="898.135" y="737.407"/>
      <point x="957.382" y="737.407" type="curve" smooth="yes"/>
      <point x="985.051" y="737.407"/>
      <point x="1016" y="713.661"/>
      <point x="1016" y="684" type="curve" smooth="yes"/>
      <point x="1016" y="556.043"/>
      <point x="891.131" y="407"/>
      <point x="788" y="407" type="curve"/>
      <point x="788" y="248"/>
      <point x="668.396" y="0"/>
      <point x="397" y="0" type="curve" smooth="yes"/>
      <point x="166" y="0"/>
      <point x="67" y="206"/>
      <point x="67" y="437" type="curve" smooth="yes"/>
      <point x="67" y="709.339"/>
      <point x="236.597" y="965.395"/>
      <point x="500.823" y="965.395" type="curve" smooth="yes"/>
      <point x="670.451" y="965.395"/>
      <point x="796" y="827.204"/>
      <point x="796" y="618" type="curve" smooth="yes"/>
      <point x="796" y="591.989"/>
      <point x="806.353" y="579.388"/>
    </contour>
  </outline>
</glyph>
<glyph name="braceleft" format="1">
  <advance width="1153"/>
  <unicode hex="007B"/>
  <outline>
    <contour>
      <point x="487" y="1384" type="line"/>
      <point x="520" y="1597"/>
      <point x="639" y="1824"/>
      <point x="877" y="1824" type="curve" smooth="yes"/>
      <point x="1037" y="1824"/>
      <point x="1185" y="1798"/>
      <point x="1278" y="1728" type="curve" smooth="yes"/>
      <point x="1294" y="1715"/>
      <point x="1305" y="1695"/>
      <point x="1305" y="1669" type="curve" smooth="yes"/>
      <point x="1305" y="1601"/>
      <point x="1251" y="1536"/>
      <point x="1183" y="1536" type="curve" smooth="yes"/>
      <point x="1088" y="1536"/>
      <point x="1000" y="1568"/>
      <point x="900" y="1568" type="curve" smooth="yes"/>
      <point x="698" y="1568"/>
      <point x="717" y="1118"/>
      <point x="660" y="968" type="curve" smooth="yes"/>
      <point x="627" y="882"/>
      <point x="576" y="813"/>
      <point x="488" y="781" type="curve"/>
      <point x="591" y="755"/>
      <point x="627" y="662"/>
      <point x="627" y="534" type="curve" smooth="yes"/>
      <point x="627" y="378"/>
      <point x="580" y="234"/>
      <point x="580" y="86" type="curve" smooth="yes"/>
      <point x="580" y="4"/>
      <point x="596" y="-56"/>
      <point x="675" y="-56" type="curve" smooth="yes"/>
      <point x="778" y="-56"/>
      <point x="828" y="18"/>
      <point x="926" y="18" type="curve" smooth="yes"/>
      <point x="986" y="18"/>
      <point x="1019" y="-26"/>
      <point x="1019" y="-87" type="curve" smooth="yes"/>
      <point x="1019" y="-255"/>
      <point x="731" y="-312"/>
      <point x="570" y="-312" type="curve" smooth="yes"/>
      <point x="389" y="-312"/>
      <point x="312" y="-160"/>
      <point x="312" y="23" type="curve" smooth="yes"/>
      <point x="312" y="170"/>
      <point x="365" y="298"/>
      <point x="365" y="439" type="curve" smooth="yes"/>
      <point x="365" y="549"/>
      <point x="320" y="632"/>
      <point x="209" y="632" type="curve" smooth="yes"/>
      <point x="154" y="632"/>
      <point x="132" y="680"/>
      <point x="132" y="735" type="curve" smooth="yes"/>
      <point x="132" y="818"/>
      <point x="176" y="918"/>
      <point x="254" y="920" type="curve" smooth="yes"/>
      <point x="428" y="924"/>
      <point x="487" y="1022"/>
      <point x="487" y="1176" type="curve" smooth="yes"/>
    </contour>
  </outline>
</glyph>
<glyph name="twosuperior" format="1">
  <advance width="992"/>
  <unicode hex="00B2"/>
  <outline>
    <contour>
      <point x="207" y="813" type="curve" smooth="yes"/>
      <point x="207" y="791"/>
      <point x="240" y="774"/>
      <point x="263" y="774" type="curve" smooth="yes"/>
      <point x="288" y="774"/>
      <point x="319" y="787"/>
      <point x="354" y="813" type="curve"/>
      <point x="332" y="824"/>
      <point x="307" y="838"/>
      <point x="279" y="838" type="curve" smooth="yes"/>
      <point x="247" y="838"/>
      <point x="207" y="835"/>
    </contour>
    <contour>
      <point x="947" y="854" type="curve" smooth="yes"/>
      <point x="947" y="732"/>
      <point x="895" y="609"/>
      <point x="765" y="609" type="curve" smooth="yes"/>
      <point x="673" y="609"/>
      <point x="591" y="662"/>
      <point x="528" y="702" type="curve"/>
      <point x="461" y="654"/>
      <point x="379" y="609"/>
      <point x="276" y="609" type="curve" smooth="yes"/>
      <point x="158" y="609"/>
      <point x="37" y="675"/>
      <point x="37" y="789" type="curve" smooth="yes"/>
      <point x="37" y="897"/>
      <point x="109" y="976"/>
      <point x="220" y="976" type="curve" smooth="yes"/>
      <point x="321" y="976"/>
      <point x="393" y="951"/>
      <point x="461" y="920" type="curve"/>
      <point x="512" y="986"/>
      <point x="570" y="1084"/>
      <point x="570" y="1191" type="curve" smooth="yes"/>
      <point x="570" y="1290"/>
      <point x="539" y="1364"/>
      <point x="445" y="1364" type="curve" smooth="yes"/>
      <point x="382" y="1364"/>
      <point x="323" y="1330"/>
      <point x="323" y="1268" type="curve" smooth="yes"/>
      <point x="323" y="1227"/>
      <point x="412" y="1225"/>
      <point x="412" y="1195" type="curve" smooth="yes"/>
      <point x="412" y="1149"/>
      <point x="229" y="1127"/>
      <point x="175" y="1127" type="curve"/>
      <point x="169" y="1136"/>
      <point x="162" y="1137"/>
      <point x="150" y="1137" type="curve"/>
      <point x="110" y="1168"/>
      <point x="78" y="1208"/>
      <point x="78" y="1271" type="curve" smooth="yes"/>
      <point x="78" y="1439"/>
      <point x="288" y="1535"/>
      <point x="464" y="1535" type="curve" smooth="yes"/>
      <point x="673" y="1535"/>
      <point x="834" y="1420"/>
      <point x="834" y="1206" type="curve" smooth="yes"/>
      <point x="834" y="1052"/>
      <point x="735" y="912"/>
      <point x="657" y="821" type="curve"/>
      <point x="697" y="805"/>
      <point x="741" y="796"/>
      <point x="796" y="796" type="curve" smooth="yes"/>
      <point x="839" y="796"/>
      <point x="860" y="881"/>
      <point x="895" y="881" type="curve" smooth="yes"/>
      <point x="926" y="881"/>
      <point x="947" y="881"/>
    </contour>
  </outline>
</glyph>
<glyph name="mu" format="1">
  <advance width="962"/>
  <unicode hex="00B5"/>
  <outline>
    <contour>
      <point x="765" y="959" type="curve" smooth="yes"/>
      <point x="818" y="959"/>
      <point x="876" y="941"/>
      <point x="876" y="895" type="curve" smooth="yes"/>
      <point x="876" y="708"/>
      <point x="792" y="531"/>
      <point x="792" y="352" type="curve" smooth="yes"/>
      <point x="792" y="327" type="line" smooth="yes"/>
      <point x="792" y="275"/>
      <point x="795" y="223"/>
      <point x="845" y="223" type="curve" smooth="yes"/>
      <point x="988" y="223"/>
      <point x="1149" y="370"/>
      <point x="1214" y="454" type="curve"/>
      <point x="1214" y="414"/>
      <point x="1215" y="380"/>
      <point x="1215" y="342" type="curve" smooth="yes"/>
      <point x="1215" y="305"/>
      <point x="1216" y="273"/>
      <point x="1216" y="234" type="curve"/>
      <point x="1115" y="133"/>
      <point x="935" y="10"/>
      <point x="745" y="10" type="curve" smooth="yes"/>
      <point x="630" y="10"/>
      <point x="598" y="118"/>
      <point x="577" y="215" type="curve"/>
      <point x="528" y="143"/>
      <point x="452" y="60"/>
      <point x="350" y="60" type="curve" smooth="yes"/>
      <point x="330" y="60"/>
      <point x="311" y="64"/>
      <point x="293" y="72" type="curve"/>
      <point x="277" y="-76"/>
      <point x="286" y="-256"/>
      <point x="128" y="-256" type="curve" smooth="yes"/>
      <point x="52" y="-256"/>
      <point x="32" y="-208"/>
      <point x="32" y="-128" type="curve" smooth="yes"/>
      <point x="32" y="205"/>
      <point x="111" y="553"/>
      <point x="181" y="842" type="curve" smooth="yes"/>
      <point x="203" y="932"/>
      <point x="224" y="959"/>
      <point x="336" y="959" type="curve" smooth="yes"/>
      <point x="377" y="959"/>
      <point x="435" y="951"/>
      <point x="435" y="920" type="curve" smooth="yes"/>
      <point x="435" y="917" type="line"/>
      <point x="404" y="733"/>
      <point x="370" y="533"/>
      <point x="342" y="349" type="curve" smooth="yes"/>
      <point x="339" y="329"/>
      <point x="338" y="319"/>
      <point x="338" y="318" type="curve" smooth="yes"/>
      <point x="338" y="274"/>
      <point x="353" y="225"/>
      <point x="396" y="225" type="curve" smooth="yes"/>
      <point x="483" y="225"/>
      <point x="530" y="319"/>
      <point x="545" y="394" type="curve" smooth="yes"/>
      <point x="644" y="902" type="line" smooth="yes"/>
      <point x="652" y="939"/>
      <point x="716" y="959"/>
    </contour>
  </outline>
</glyph>
<glyph name="onesuperior" format="1">
  <advance width="704"/>
  <unicode hex="00B9"/>
  <outline>
    <contour>
      <point x="242" y="800" type="curve" smooth="yes"/>
      <point x="242" y="813"/>
      <point x="245" y="824"/>
      <point x="247" y="837" type="curve"/>
      <point x="246" y="837" type="line"/>
      <point x="285" y="1026"/>
      <point x="325" y="1223"/>
      <point x="365" y="1406" type="curve"/>
      <point x="153" y="1350" type="line"/>
      <point x="152" y="1350" type="line"/>
      <point x="146" y="1349"/>
      <point x="141" y="1347"/>
      <point x="136" y="1347" type="curve" smooth="yes"/>
      <point x="90" y="1347"/>
      <point x="55" y="1394"/>
      <point x="55" y="1440" type="curve" smooth="yes"/>
      <point x="55" y="1515"/>
      <point x="157" y="1522"/>
      <point x="230" y="1540" type="curve" smooth="yes"/>
      <point x="288" y="1554"/>
      <point x="392" y="1600"/>
      <point x="486" y="1600" type="curve" smooth="yes"/>
      <point x="552" y="1600"/>
      <point x="608" y="1563"/>
      <point x="608" y="1497" type="curve" smooth="yes"/>
      <point x="608" y="1395"/>
      <point x="575" y="1299"/>
      <point x="552" y="1175" type="curve" smooth="yes"/>
      <point x="532" y="1068"/>
      <point x="516" y="704"/>
      <point x="361" y="704" type="curve" smooth="yes"/>
      <point x="292" y="704"/>
      <point x="242" y="731"/>
    </contour>
  </outline>
</glyph>
<glyph name="lslash" format="1">
  <advance width="575"/>
  <unicode hex="0142"/>
  <outline>
    <contour>
      <point x="683" y="1593" type="curve" smooth="yes"/>
      <point x="683" y="1620"/>
      <point x="673" y="1641"/>
      <point x="652" y="1641" type="curve" smooth="yes"/>
      <point x="546" y="1641"/>
      <point x="472" y="1495"/>
      <point x="422" y="1316" type="curve"/>
      <point x="490" y="1331"/>
      <point x="559" y="1345"/>
      <point x="628" y="1360" type="curve"/>
      <point x="650" y="1425"/>
      <point x="683" y="1520"/>
    </contour>
    <contour>
      <point x="352" y="461" type="curve" smooth="yes"/>
      <point x="352" y="397"/>
      <point x="362" y="244"/>
      <point x="418" y="244" type="curve" smooth="yes"/>
      <point x="499" y="244"/>
      <point x="573" y="305"/>
      <point x="626" y="340" type="curve" smooth="yes"/>
      <point x="668" y="368"/>
      <point x="712" y="400"/>
      <point x="758" y="437" type="curve"/>
      <point x="840" y="227" type="line"/>
      <point x="715" y="137"/>
      <point x="590" y="50"/>
      <point x="424" y="10" type="curve" smooth="yes"/>
      <point x="398" y="4"/>
      <point x="374" y="0"/>
      <point x="351" y="0" type="curve" smooth="yes"/>
      <point x="161" y="0"/>
      <point x="94" y="320"/>
      <point x="94" y="519" type="curve" smooth="yes"/>
      <point x="94" y="703"/>
      <point x="111" y="888"/>
      <point x="144" y="1060" type="curve"/>
      <point x="103" y="1051"/>
      <point x="62" y="1042"/>
      <point x="22" y="1034" type="curve" smooth="yes"/>
      <point x="12" y="1032"/>
      <point x="3" y="1031"/>
      <point x="-5" y="1031" type="curve" smooth="yes"/>
      <point x="-65" y="1031"/>
      <point x="-99" y="1087"/>
      <point x="-99" y="1144" type="curve" smooth="yes"/>
      <point x="-99" y="1237"/>
      <point x="88" y="1252"/>
      <point x="194" y="1269" type="curve"/>
      <point x="249" y="1459"/>
      <point x="326" y="1624"/>
      <point x="424" y="1748" type="curve" smooth="yes"/>
      <point x="494" y="1837"/>
      <point x="587" y="1920"/>
      <point x="727" y="1920" type="curve" smooth="yes"/>
      <point x="842" y="1920"/>
      <point x="871" y="1810"/>
      <point x="871" y="1694" type="curve" smooth="yes"/>
      <point x="871" y="1593"/>
      <point x="857" y="1496"/>
      <point x="834" y="1405" type="curve"/>
      <point x="872" y="1413"/>
      <point x="910" y="1422"/>
      <point x="947" y="1430" type="curve"/>
      <point x="956" y="1433"/>
      <point x="967" y="1434"/>
      <point x="979" y="1434" type="curve" smooth="yes"/>
      <point x="1035" y="1434"/>
      <point x="1060" y="1397"/>
      <point x="1060" y="1338" type="curve" smooth="yes"/>
      <point x="1060" y="1237"/>
      <point x="949" y="1234"/>
      <point x="858" y="1214" type="curve" smooth="yes"/>
      <point x="762" y="1193" type="line"/>
      <point x="703" y="1054"/>
      <point x="627" y="930"/>
      <point x="556" y="821" type="curve" smooth="yes"/>
      <point x="496" y="729"/>
      <point x="433" y="644"/>
      <point x="370" y="565" type="curve" smooth="yes"/>
      <point x="355" y="546"/>
      <point x="352" y="498"/>
    </contour>
    <contour>
      <point x="377" y="1110" type="curve"/>
      <point x="353" y="965"/>
      <point x="342" y="825"/>
      <point x="342" y="740" type="curve"/>
      <point x="414" y="866"/>
      <point x="485" y="1002"/>
      <point x="547" y="1146" type="curve"/>
      <point x="490" y="1134"/>
      <point x="434" y="1122"/>
    </contour>
  </outline>
</glyph>
<glyph name="quoteright" format="1">
  <advance width="640"/>
  <unicode hex="2019"/>
  <outline>
    <contour>
      <point x="270" y="1185" type="curve" smooth="yes"/>
      <point x="240.627" y="1185"/>
      <point x="219.533" y="1220.67"/>
      <point x="219.533" y="1270.09" type="curve" smooth="yes"/>
      <point x="219.533" y="1274.3"/>
      <point x="219.686" y="1278.6"/>
      <point x="220" y="1283" type="curve" smooth="yes"/>
      <point x="252" y="1728" type="line" smooth="yes"/>
      <point x="258" y="1810"/>
      <point x="321.821" y="1856"/>
      <point x="390" y="1856" type="curve" smooth="yes"/>
      <point x="442.401" y="1856"/>
      <point x="504.076" y="1818.36"/>
      <point x="504.076" y="1753.56" type="curve" smooth="yes"/>
      <point x="504.076" y="1742.19"/>
      <point x="502.178" y="1729.98"/>
      <point x="498" y="1717" type="curve" smooth="yes"/>
      <point x="352" y="1260" type="line"/>
      <point x="340.745" y="1221.32"/>
      <point x="311.732" y="1185"/>
    </contour>
  </outline>
</glyph>
<glyph name="ellipsis" format="1">
  <advance width="1567"/>
  <unicode hex="2026"/>
  <outline>
    <contour>
      <point x="503" y="353" type="curve" smooth="yes"/>
      <point x="611" y="353"/>
      <point x="672" y="297"/>
      <point x="672" y="191" type="curve" smooth="yes"/>
      <point x="672" y="76"/>
      <point x="603" y="0"/>
      <point x="484" y="0" type="curve" smooth="yes"/>
      <point x="378" y="0"/>
      <point x="320" y="55"/>
      <point x="320" y="162" type="curve" smooth="yes"/>
      <point x="320" y="277"/>
      <point x="386" y="353"/>
    </contour>
    <contour>
      <point x="1335" y="353" type="curve" smooth="yes"/>
      <point x="1443" y="353"/>
      <point x="1504" y="297"/>
      <point x="1504" y="191" type="curve" smooth="yes"/>
      <point x="1504" y="76"/>
      <point x="1435" y="0"/>
      <point x="1316" y="0" type="curve" smooth="yes"/>
      <point x="1210" y="0"/>
      <point x="1152" y="55"/>
      <point x="1152" y="162" type="curve" smooth="yes"/>
      <point x="1152" y="277"/>
      <point x="1218" y="353"/>
    </contour>
    <contour>
      <point x="919" y="353" type="curve" smooth="yes"/>
      <point x="1027" y="353"/>
      <point x="1088" y="297"/>
      <point x="1088" y="191" type="curve" smooth="yes"/>
      <point x="1088" y="76"/>
      <point x="1019" y="0"/>
      <point x="900" y="0" type="curve" smooth="yes"/>
      <point x="794" y="0"/>
      <point x="736" y="55"/>
      <point x="736" y="162" type="curve" smooth="yes"/>
      <point x="736" y="277"/>
      <point x="802" y="353"/>
    </contour>
  </outline>
</glyph>
<glyph name="fi" format="1">
  <advance width="1260"/>
  <unicode hex="FB01"/>
  <outline>
    <contour>
      <point x="1184" y="1089" type="curve" smooth="yes"/>
      <point x="1077" y="1089"/>
      <point x="1012" y="1140"/>
      <point x="1012" y="1241" type="curve" smooth="yes"/>
      <point x="1012" y="1345"/>
      <point x="1098" y="1408"/>
      <point x="1208" y="1408" type="curve" smooth="yes"/>
      <point x="1306" y="1408"/>
      <point x="1378" y="1366"/>
      <point x="1378" y="1268" type="curve" smooth="yes"/>
      <point x="1378" y="1155"/>
      <point x="1300" y="1089"/>
    </contour>
    <contour>
      <point x="747" y="1529" type="curve" smooth="yes"/>
      <point x="747" y="1583"/>
      <point x="736" y="1631"/>
      <point x="691" y="1631" type="curve" smooth="yes"/>
      <point x="621" y="1631"/>
      <point x="600" y="1589"/>
      <point x="578" y="1533" type="curve" smooth="yes"/>
      <point x="482" y="1295"/>
      <point x="435" y="1100"/>
      <point x="399" y="816" type="curve"/>
      <point x="504" y="1013"/>
      <point x="629" y="1216"/>
      <point x="716" y="1418" type="curve" smooth="yes"/>
      <point x="737" y="1467"/>
      <point x="747" y="1504"/>
    </contour>
    <contour>
      <point x="354" y="-379" type="curve" smooth="yes"/>
      <point x="458" y="-379"/>
      <point x="457" y="-167"/>
      <point x="457" y="-57" type="curve" smooth="yes"/>
      <point x="457" y="107"/>
      <point x="421" y="300"/>
      <point x="361" y="415" type="curve" smooth="yes"/>
      <point x="352" y="433"/>
      <point x="343" y="442"/>
      <point x="335" y="442" type="curve" smooth="yes"/>
      <point x="308" y="442"/>
      <point x="294" y="110"/>
      <point x="294" y="59" type="curve" smooth="yes"/>
      <point x="294" y="33"/>
      <point x="293" y="-5"/>
      <point x="293" y="-47" type="curve" smooth="yes"/>
      <point x="293" y="-187"/>
      <point x="300" y="-379"/>
    </contour>
    <contour>
      <point x="1075" y="290" type="curve" smooth="yes"/>
      <point x="1075" y="240"/>
      <point x="1080" y="192"/>
      <point x="1126" y="192" type="curve" smooth="yes"/>
      <point x="1257" y="192"/>
      <point x="1381" y="352"/>
      <point x="1459" y="416" type="curve"/>
      <point x="1459" y="213" type="line"/>
      <point x="1359" y="121"/>
      <point x="1189" y="0"/>
      <point x="1005" y="0" type="curve" smooth="yes"/>
      <point x="874" y="0"/>
      <point x="819" y="71"/>
      <point x="819" y="201" type="curve" smooth="yes"/>
      <point x="819" y="286"/>
      <point x="837" y="376"/>
      <point x="854" y="455" type="curve"/>
      <point x="759" y="421"/>
      <point x="652" y="399"/>
      <point x="535" y="397" type="curve"/>
      <point x="597" y="283"/>
      <point x="666" y="142"/>
      <point x="666" y="-29" type="curve" smooth="yes"/>
      <point x="666" y="-267"/>
      <point x="571" y="-604"/>
      <point x="333" y="-604" type="curve" smooth="yes"/>
      <point x="99" y="-604"/>
      <point x="68" y="-276"/>
      <point x="68" y="-38" type="curve" smooth="yes"/>
      <point x="68" y="494"/>
      <point x="165" y="1053"/>
      <point x="323" y="1454" type="curve" smooth="yes"/>
      <point x="390" y="1625"/>
      <point x="497" y="1856"/>
      <point x="717" y="1856" type="curve" smooth="yes"/>
      <point x="850" y="1856"/>
      <point x="929" y="1762"/>
      <point x="929" y="1624" type="curve" smooth="yes"/>
      <point x="929" y="1442"/>
      <point x="846" y="1281"/>
      <point x="780" y="1144" type="curve" smooth="yes"/>
      <point x="687" y="952"/>
      <point x="571" y="763"/>
      <point x="445" y="603" type="curve"/>
      <point x="443" y="587" type="line"/>
      <point x="464" y="598"/>
      <point x="471" y="603"/>
      <point x="494" y="603" type="curve" smooth="yes"/>
      <point x="524" y="603"/>
      <point x="532" y="587"/>
      <point x="560" y="587" type="curve" smooth="yes"/>
      <point x="709" y="587"/>
      <point x="825" y="633"/>
      <point x="912" y="694" type="curve"/>
      <point x="955" y="863" type="line" smooth="yes"/>
      <point x="972" y="927"/>
      <point x="1058" y="960"/>
      <point x="1137" y="960" type="curve" smooth="yes"/>
      <point x="1185" y="960"/>
      <point x="1209" y="945"/>
      <point x="1209" y="903" type="curve" smooth="yes"/>
      <point x="1209" y="695"/>
      <point x="1075" y="514"/>
    </contour>
  </outline>
</glyph>
<glyph name="e.fina" format="1">
  <advance width="840"/>
  <outline>
    <contour>
      <point x="583" y="678" type="curve" smooth="yes"/>
      <point x="583" y="731"/>
      <point x="558" y="771"/>
      <point x="510" y="771" type="curve" smooth="yes"/>
      <point x="352" y="771"/>
      <point x="294" y="573"/>
      <point x="294" y="437" type="curve"/>
      <point x="387" y="470"/>
      <point x="583" y="558"/>
    </contour>
    <contour>
      <point x="478.197" y="-5.56304" type="curve" smooth="yes"/>
      <point x="203.451" y="-5.56304"/>
      <point x="50" y="134.723"/>
      <point x="50" y="417" type="curve" smooth="yes"/>
      <point x="50" y="687"/>
      <point x="204" y="959"/>
      <point x="498" y="959" type="curve" smooth="yes"/>
      <point x="652" y="959"/>
      <point x="761" y="863"/>
      <point x="761" y="709" type="curve" smooth="yes"/>
      <point x="761" y="486"/>
      <point x="515" y="340"/>
      <point x="317" y="290" type="curve"/>
      <point x="338.369" y="223.269"/>
      <point x="401.747" y="181.556"/>
      <point x="492.904" y="181.556" type="curve" smooth="yes"/>
      <point x="665.628" y="181.556"/>
      <point x="853.254" y="335.56"/>
      <point x="959" y="410" type="curve" smooth="yes"/>
      <point x="970" y="417"/>
      <point x="981" y="422"/>
      <point x="993" y="422" type="curve" smooth="yes"/>
      <point x="1037" y="422"/>
      <point x="1085" y="369"/>
      <point x="1085" y="321" type="curve" smooth="yes"/>
      <point x="1085" y="303"/>
      <point x="1079" y="284"/>
      <point x="1061" y="271" type="curve"/>
      <point x="921.75" y="158.627"/>
      <point x="760.067" y="-5.56304"/>
    </contour>
  </outline>
</glyph>
<glyph name="ff.fina" format="1">
  <advance width="1393"/>
  <outline>
    <contour>
      <point x="302" y="-379" type="curve" smooth="yes"/>
      <point x="421" y="-379"/>
      <point x="422" y="-173"/>
      <point x="422" y="-62" type="curve" smooth="yes"/>
      <point x="422" y="-57" type="line" smooth="yes"/>
      <point x="422" y="187"/>
      <point x="358" y="384"/>
      <point x="286" y="522" type="curve"/>
      <point x="277" y="330"/>
      <point x="259" y="144"/>
      <point x="259" y="-47" type="curve" smooth="yes"/>
      <point x="259" y="-187"/>
      <point x="263" y="-379"/>
    </contour>
    <contour>
      <point x="795" y="1529" type="curve" smooth="yes"/>
      <point x="795" y="1583"/>
      <point x="786" y="1631"/>
      <point x="745" y="1631" type="curve" smooth="yes"/>
      <point x="516" y="1631"/>
      <point x="356" y="775"/>
      <point x="330" y="686" type="curve"/>
      <point x="486" y="879"/>
      <point x="795" y="1266"/>
    </contour>
    <contour>
      <point x="1053" y="-455" type="curve" smooth="yes"/>
      <point x="831" y="-455"/>
      <point x="808" y="-142"/>
      <point x="808" y="112" type="curve" smooth="yes"/>
      <point x="808" y="206"/>
      <point x="815" y="326"/>
      <point x="830" y="457" type="curve"/>
      <point x="737" y="434"/>
      <point x="616" y="429"/>
      <point x="514" y="427" type="curve"/>
      <point x="570" y="281"/>
      <point x="633" y="100"/>
      <point x="633" y="-119" type="curve" smooth="yes"/>
      <point x="633" y="-320"/>
      <point x="530" y="-604"/>
      <point x="270" y="-604" type="curve" smooth="yes"/>
      <point x="62" y="-604"/>
      <point x="34" y="-276"/>
      <point x="34" y="-38" type="curve" smooth="yes"/>
      <point x="34" y="521"/>
      <point x="226" y="1856"/>
      <point x="782" y="1856" type="curve" smooth="yes"/>
      <point x="907" y="1856"/>
      <point x="982" y="1762"/>
      <point x="982" y="1624" type="curve" smooth="yes"/>
      <point x="982" y="1243"/>
      <point x="642" y="833"/>
      <point x="445" y="603" type="curve"/>
      <point x="474" y="593"/>
      <point x="520" y="587"/>
      <point x="559" y="587" type="curve" smooth="yes"/>
      <point x="689" y="587"/>
      <point x="760" y="602"/>
      <point x="852" y="626" type="curve"/>
      <point x="930" y="1127"/>
      <point x="1119" y="1706"/>
      <point x="1476" y="1706" type="curve" smooth="yes"/>
      <point x="1601" y="1706"/>
      <point x="1676" y="1612"/>
      <point x="1676" y="1474" type="curve" smooth="yes"/>
      <point x="1676" y="1149"/>
      <point x="1349" y="799"/>
      <point x="1159" y="603" type="curve"/>
      <point x="1188" y="601"/>
      <point x="1234" y="600"/>
      <point x="1273" y="600" type="curve" smooth="yes"/>
      <point x="1440" y="600"/>
      <point x="1512" y="602"/>
      <point x="1650" y="605" type="curve"/>
      <point x="1695" y="600"/>
      <point x="1704" y="589"/>
      <point x="1704" y="542" type="curve" smooth="yes"/>
      <point x="1704" y="452"/>
      <point x="1430" y="443"/>
      <point x="1228" y="440" type="curve"/>
      <point x="1279" y="301"/>
      <point x="1337" y="129"/>
      <point x="1337" y="-79" type="curve" smooth="yes"/>
      <point x="1337" y="-228"/>
      <point x="1293" y="-455"/>
    </contour>
    <contour>
      <point x="1056" y="-229" type="curve" smooth="yes"/>
      <point x="1122" y="-229"/>
      <point x="1144" y="-159"/>
      <point x="1144" y="-64" type="curve" smooth="yes"/>
      <point x="1144" y="148"/>
      <point x="1025" y="474"/>
      <point x="1010" y="502" type="curve"/>
      <point x="1011" y="368"/>
      <point x="1013" y="237"/>
      <point x="1013" y="103" type="curve" smooth="yes"/>
      <point x="1013" y="-37"/>
      <point x="1017" y="-229"/>
    </contour>
    <contour>
      <point x="1491" y="1414" type="curve" smooth="yes"/>
      <point x="1491" y="1454"/>
      <point x="1472" y="1482"/>
      <point x="1429" y="1482" type="curve" smooth="yes"/>
      <point x="1218" y="1482"/>
      <point x="1068" y="760"/>
      <point x="1044" y="686" type="curve"/>
      <point x="1180" y="794"/>
      <point x="1491" y="1227"/>
    </contour>
  </outline>
</glyph>
<glyph name="l_l" format="1">
  <advance width="1237"/>
  <outline>
    <contour>
      <point x="1342.85" y="1493" type="curve" smooth="yes"/>
      <point x="1342.85" y="1520"/>
      <point x="1332.85" y="1541"/>
      <point x="1311.85" y="1541" type="curve" smooth="yes"/>
      <point x="1109.91" y="1541"/>
      <point x="1034.85" y="926.743"/>
      <point x="1034.85" y="710" type="curve"/>
      <point x="1144.11" y="904.097"/>
      <point x="1254.27" y="1123.47"/>
      <point x="1317.85" y="1360" type="curve" smooth="yes"/>
      <point x="1330.85" y="1408"/>
      <point x="1342.85" y="1452"/>
    </contour>
    <contour>
      <point x="352.549" y="-1.5625" type="curve" smooth="yes"/>
      <point x="141.073" y="-1.5625"/>
      <point x="71.8496" y="320.176"/>
      <point x="71.8496" y="519" type="curve" smooth="yes"/>
      <point x="71.8496" y="1034.08"/>
      <point x="296.652" y="1920"/>
      <point x="724.85" y="1920" type="curve" smooth="yes"/>
      <point x="839.85" y="1920"/>
      <point x="868.85" y="1810"/>
      <point x="868.85" y="1694" type="curve" smooth="yes"/>
      <point x="868.85" y="1206.49"/>
      <point x="583.652" y="833.87"/>
      <point x="347.85" y="565" type="curve" smooth="yes"/>
      <point x="331.89" y="546.802"/>
      <point x="329.85" y="498"/>
      <point x="329.85" y="461" type="curve" smooth="yes"/>
      <point x="329.85" y="382"/>
      <point x="339.85" y="209"/>
      <point x="421.85" y="209" type="curve" smooth="yes"/>
      <point x="444.906" y="209"/>
      <point x="623.85" y="342.011"/>
      <point x="773.85" y="519" type="curve"/>
      <point x="773.85" y="1013.66"/>
      <point x="938.422" y="1820"/>
      <point x="1386.85" y="1820" type="curve" smooth="yes"/>
      <point x="1501.85" y="1820"/>
      <point x="1530.85" y="1710"/>
      <point x="1530.85" y="1594" type="curve" smooth="yes"/>
      <point x="1530.85" y="1131.6"/>
      <point x="1254.99" y="779.569"/>
      <point x="1033.85" y="515" type="curve"/>
      <point x="1031.85" y="461" type="line"/>
      <point x="1031.85" y="378.105"/>
      <point x="1039.86" y="222.711"/>
      <point x="1125.97" y="222.711" type="curve" smooth="yes"/>
      <point x="1229.85" y="222.711"/>
      <point x="1370.34" y="348.812"/>
      <point x="1437.85" y="417" type="curve" smooth="yes"/>
      <point x="1462.44" y="441.068"/>
      <point x="1481.73" y="451.077"/>
      <point x="1496.7" y="451.077" type="curve" smooth="yes"/>
      <point x="1531.7" y="451.077"/>
      <point x="1543" y="406.051"/>
      <point x="1543" y="358.604" type="curve" smooth="yes"/>
      <point x="1543" y="297.831"/>
      <point x="1530.1" y="234.32"/>
      <point x="1519.85" y="227" type="curve" smooth="yes"/>
      <point x="1391.49" y="135.365"/>
      <point x="1230.92" y="0"/>
      <point x="1030.85" y="0" type="curve" smooth="yes"/>
      <point x="910.281" y="0"/>
      <point x="841.384" y="156.781"/>
      <point x="808.85" y="327" type="curve"/>
      <point x="685.102" y="159.502"/>
      <point x="495.459" y="-1.5625"/>
    </contour>
    <contour>
      <point x="690.85" y="1583" type="curve" smooth="yes"/>
      <point x="690.85" y="1610"/>
      <point x="680.85" y="1631"/>
      <point x="659.85" y="1631" type="curve" smooth="yes"/>
      <point x="426.56" y="1631"/>
      <point x="339.85" y="972.392"/>
      <point x="339.85" y="740" type="curve"/>
      <point x="465.711" y="952.014"/>
      <point x="592.603" y="1191.64"/>
      <point x="665.85" y="1450" type="curve" smooth="yes"/>
      <point x="678.85" y="1498"/>
      <point x="690.85" y="1542"/>
    </contour>
  </outline>
</glyph>
<glyph name="No" format="1">
  <advance width="2632"/>
  <outline>
    <contour>
      <point x="1953" y="746" type="curve" smooth="yes"/>
      <point x="1953" y="637"/>
      <point x="1989" y="542"/>
      <point x="2098" y="542" type="curve" smooth="yes"/>
      <point x="2216" y="542"/>
      <point x="2273" y="775"/>
      <point x="2273" y="901" type="curve" smooth="yes"/>
      <point x="2273" y="1000"/>
      <point x="2252" y="1118"/>
      <point x="2156" y="1118" type="curve" smooth="yes"/>
      <point x="2021" y="1118"/>
      <point x="1953" y="888"/>
    </contour>
    <contour>
      <point x="2467.23" y="910.328" type="curve" smooth="yes"/>
      <point x="2467.23" y="624.324"/>
      <point x="2327.03" y="350"/>
      <point x="2059" y="350" type="curve" smooth="yes"/>
      <point x="1828" y="350"/>
      <point x="1729" y="556"/>
      <point x="1729" y="787" type="curve" smooth="yes"/>
      <point x="1729" y="1077.25"/>
      <point x="1932.81" y="1311.16"/>
      <point x="2159.39" y="1311.16" type="curve" smooth="yes"/>
      <point x="2333.69" y="1311.16"/>
      <point x="2467.23" y="1165.6"/>
    </contour>
    <contour>
      <point x="1784" y="269.929" type="line"/>
      <point x="1866.34" y="269.684"/>
      <point x="1951" y="269"/>
      <point x="2040" y="269.499" type="curve" smooth="yes"/>
      <point x="2307" y="271" type="line" smooth="yes"/>
      <point x="2364" y="271"/>
      <point x="2372.19" y="159.611"/>
      <point x="2388" y="112" type="curve"/>
      <point x="1722" y="112.648" type="line"/>
    </contour>
    <contour>
      <point x="1473" y="1427" type="curve" smooth="yes"/>
      <point x="1473" y="1044.68"/>
      <point x="1282.46" y="672.678"/>
      <point x="1282.46" y="386.537" type="curve" smooth="yes"/>
      <point x="1282.46" y="266.451"/>
      <point x="1322.47" y="151"/>
      <point x="1415" y="151" type="curve" smooth="yes"/>
      <point x="1462.42" y="151"/>
      <point x="1508.63" y="166.895"/>
      <point x="1554" y="193.813" type="curve" smooth="yes"/>
      <point x="1562.21" y="197.685"/>
      <point x="1569.79" y="199.494"/>
      <point x="1576.76" y="199.494" type="curve" smooth="yes"/>
      <point x="1603.89" y="199.494"/>
      <point x="1638.94" y="166.245"/>
      <point x="1638.94" y="135.801" type="curve" smooth="yes"/>
      <point x="1638.94" y="127.558"/>
      <point x="1636.37" y="119.52"/>
      <point x="1630.38" y="112.403" type="curve" smooth="yes"/>
      <point x="1573.94" y="45.3699"/>
      <point x="1455.4" y="-15.179"/>
      <point x="1339.31" y="-15.179" type="curve" smooth="yes"/>
      <point x="1188.01" y="-15.179"/>
      <point x="1040.88" y="87.6818"/>
      <point x="1040.88" y="413.113" type="curve" smooth="yes"/>
      <point x="1040.88" y="726.11"/>
      <point x="1149.25" y="956.404"/>
      <point x="1200" y="1208" type="curve" smooth="yes"/>
      <point x="1208" y="1249"/>
      <point x="1212" y="1289"/>
      <point x="1212" y="1327" type="curve" smooth="yes"/>
      <point x="1212" y="1394.07"/>
      <point x="1199.13" y="1474.38"/>
      <point x="1121.56" y="1474.38" type="curve" smooth="yes"/>
      <point x="851.359" y="1474.38"/>
      <point x="570.562" y="359.676"/>
      <point x="473" y="85" type="curve" smooth="yes"/>
      <point x="451" y="23"/>
      <point x="403" y="-14"/>
      <point x="327" y="-14" type="curve" smooth="yes"/>
      <point x="249.936" y="-14"/>
      <point x="189.493" y="53.0958"/>
      <point x="189.493" y="127.798" type="curve" smooth="yes"/>
      <point x="189.493" y="136.461"/>
      <point x="190.306" y="145.226"/>
      <point x="192" y="154" type="curve" smooth="yes"/>
      <point x="275.075" y="584.327"/>
      <point x="358.117" y="929.928"/>
      <point x="390" y="1391" type="curve"/>
      <point x="390" y="1414" type="line" smooth="yes"/>
      <point x="390" y="1442"/>
      <point x="383" y="1471"/>
      <point x="354" y="1471" type="curve" smooth="yes"/>
      <point x="291" y="1471"/>
      <point x="237" y="1377"/>
      <point x="212" y="1339" type="curve" smooth="yes"/>
      <point x="181" y="1292"/>
      <point x="145" y="1196"/>
      <point x="79" y="1196" type="curve" smooth="yes"/>
      <point x="44" y="1196"/>
      <point x="-2" y="1241"/>
      <point x="-2" y="1275" type="curve" smooth="yes"/>
      <point x="-2" y="1456"/>
      <point x="183" y="1696"/>
      <point x="360" y="1696" type="curve" smooth="yes"/>
      <point x="543" y="1696"/>
      <point x="614" y="1585"/>
      <point x="614" y="1402" type="curve" smooth="yes"/>
      <point x="614" y="1174"/>
      <point x="530.969" y="734.357"/>
      <point x="537" y="731" type="curve"/>
      <point x="648.066" y="1102.85"/>
      <point x="783.235" y="1728"/>
      <point x="1223" y="1728" type="curve" smooth="yes"/>
      <point x="1398.12" y="1728"/>
      <point x="1473" y="1578"/>
    </contour>
  </outline>
</glyph>
<glyph name="os.fina" format="1">
  <advance width="1491"/>
  <outline>
    <contour>
      <point x="397" y="0" type="curve" smooth="yes"/>
      <point x="166" y="0"/>
      <point x="67" y="206"/>
      <point x="67" y="437" type="curve" smooth="yes"/>
      <point x="67" y="739"/>
      <point x="243" y="960"/>
      <point x="545" y="960" type="curve" smooth="yes"/>
      <point x="547.75" y="960" type="line" smooth="yes"/>
      <point x="704.22" y="960"/>
      <point x="808.876" y="863.747"/>
      <point x="820.336" y="751.03" type="curve"/>
      <point x="1012.41" y="767.327"/>
      <point x="1106.43" y="960"/>
      <point x="1196" y="960" type="curve" smooth="yes"/>
      <point x="1255.4" y="960"/>
      <point x="1275" y="925"/>
      <point x="1275" y="878" type="curve" smooth="yes"/>
      <point x="1275" y="828.512"/>
      <point x="1212.17" y="764.884"/>
      <point x="1163" y="726" type="curve"/>
      <point x="1151" y="711"/>
      <point x="1143" y="699"/>
      <point x="1142" y="692" type="curve"/>
      <point x="1155.43" y="672.242"/>
      <point x="1206.61" y="624.33"/>
      <point x="1261.55" y="559.976" type="curve"/>
      <point x="1346.18" y="598.306"/>
      <point x="1433.87" y="621"/>
      <point x="1512" y="621" type="curve" smooth="yes"/>
      <point x="1589.27" y="621"/>
      <point x="1643.73" y="544.749"/>
      <point x="1721" y="474" type="curve"/>
      <point x="1731" y="468"/>
      <point x="1735" y="458"/>
      <point x="1735" y="446" type="curve" smooth="yes"/>
      <point x="1735" y="415"/>
      <point x="1709" y="372"/>
      <point x="1694" y="372" type="curve" smooth="yes"/>
      <point x="1612.22" y="372"/>
      <point x="1561.22" y="412"/>
      <point x="1490" y="412" type="curve" smooth="yes"/>
      <point x="1449.27" y="412"/>
      <point x="1402.19" y="410.788"/>
      <point x="1353.58" y="404.989" type="curve"/>
      <point x="1370.24" y="364.313"/>
      <point x="1381" y="321.686"/>
      <point x="1381" y="279" type="curve" smooth="yes"/>
      <point x="1381" y="114"/>
      <point x="1274" y="-9"/>
      <point x="1033" y="-9" type="curve" smooth="yes"/>
      <point x="965" y="-9"/>
      <point x="879" y="28"/>
      <point x="879" y="120" type="curve" smooth="yes"/>
      <point x="879" y="243.498"/>
      <point x="973.328" y="369.93"/>
      <point x="1100.52" y="464.888" type="curve"/>
      <point x="1062.73" y="524.363"/>
      <point x="1021.92" y="578.362"/>
      <point x="985" y="622" type="curve"/>
      <point x="929.037" y="587.776"/>
      <point x="899.809" y="567.945"/>
      <point x="814.772" y="561.611" type="curve"/>
      <point x="790.786" y="215.887"/>
      <point x="638.001" y="6.69493e-05"/>
    </contour>
    <contour>
      <point x="549" y="762" type="curve" smooth="yes"/>
      <point x="549" y="766"/>
      <point x="530.667" y="768"/>
      <point x="494" y="768" type="curve" smooth="yes"/>
      <point x="354" y="768"/>
      <point x="261" y="588"/>
      <point x="261" y="446" type="curve" smooth="yes"/>
      <point x="261" y="313"/>
      <point x="304" y="192"/>
      <point x="436" y="192" type="curve" smooth="yes"/>
      <point x="534.306" y="192"/>
      <point x="613.904" y="368.773"/>
      <point x="613.904" y="536.738" type="curve" smooth="yes"/>
      <point x="613.904" y="555.009"/>
      <point x="612.962" y="573.176"/>
      <point x="611" y="591" type="curve"/>
      <point x="553.515" y="624.322"/>
      <point x="548.674" y="697.998"/>
      <point x="548.674" y="736.873" type="curve" smooth="yes"/>
      <point x="548.674" y="747.445"/>
      <point x="549" y="756.1"/>
    </contour>
    <contour>
      <point x="1010.71" y="163.185" type="curve" smooth="yes"/>
      <point x="1010.71" y="154.087"/>
      <point x="1033.54" y="151"/>
      <point x="1042" y="151" type="curve" smooth="yes"/>
      <point x="1101" y="151"/>
      <point x="1189" y="225"/>
      <point x="1189" y="282" type="curve" smooth="yes"/>
      <point x="1189" y="305.392"/>
      <point x="1182.72" y="329.932"/>
      <point x="1172.17" y="354.55" type="curve"/>
      <point x="1119.58" y="327.979"/>
      <point x="1010.71" y="251.762"/>
    </contour>
  </outline>
</glyph>
<glyph name="p.fina" format="1">
  <advance width="846"/>
  <outline>
    <contour>
      <point x="-24" y="-441" type="curve" smooth="yes"/>
      <point x="-24" y="-484"/>
      <point x="0" y="-549"/>
      <point x="44" y="-549" type="curve" smooth="yes"/>
      <point x="111" y="-549"/>
      <point x="114" y="-313"/>
      <point x="114" y="-173" type="curve" smooth="yes"/>
      <point x="114" y="-90" type="line"/>
      <point x="27" y="-211"/>
      <point x="-24" y="-321.807"/>
    </contour>
    <contour>
      <point x="324" y="278" type="curve"/>
      <point x="566.859" y="289.778"/>
      <point x="673" y="459.656"/>
      <point x="673" y="636" type="curve" smooth="yes"/>
      <point x="673" y="710.391"/>
      <point x="630.053" y="774"/>
      <point x="529" y="774" type="curve" smooth="yes"/>
      <point x="333" y="774"/>
      <point x="324" y="457.2"/>
    </contour>
    <contour>
      <point x="870" y="621" type="curve" smooth="yes"/>
      <point x="870" y="320.101"/>
      <point x="731.031" y="113.993"/>
      <point x="345.887" y="113.993" type="curve" smooth="yes"/>
      <point x="344.594" y="113.993"/>
      <point x="343.299" y="113.995"/>
      <point x="342" y="114" type="curve"/>
      <point x="348" y="25" type="line"/>
      <point x="348" y="-286"/>
      <point x="282" y="-581"/>
      <point x="119" y="-721" type="curve" smooth="yes"/>
      <point x="75" y="-759"/>
      <point x="29" y="-778"/>
      <point x="-18" y="-778" type="curve" smooth="yes"/>
      <point x="-161.56" y="-778"/>
      <point x="-219.11" y="-644.124"/>
      <point x="-219.11" y="-497.972" type="curve" smooth="yes"/>
      <point x="-219.11" y="-235.024"/>
      <point x="-59.3953" y="-71.9357"/>
      <point x="107.604" y="56" type="curve"/>
      <point x="104.994" y="138.722"/>
      <point x="103.641" y="219.296"/>
      <point x="103.641" y="297.342" type="curve" smooth="yes"/>
      <point x="103.641" y="686.356"/>
      <point x="217.127" y="960"/>
      <point x="517" y="960" type="curve" smooth="yes"/>
      <point x="749.783" y="960"/>
      <point x="870" y="837.383"/>
    </contour>
  </outline>
</glyph>
<glyph name="s.fin2" format="1">
  <advance width="886"/>
  <outline>
    <contour>
      <point x="424" y="165" type="curve" smooth="yes"/>
      <point x="420.742" y="154.493"/>
      <point x="446" y="151"/>
      <point x="455" y="151" type="curve" smooth="yes"/>
      <point x="514" y="151"/>
      <point x="602" y="225"/>
      <point x="602" y="282" type="curve" smooth="yes"/>
      <point x="602" y="305.392"/>
      <point x="595.717" y="329.932"/>
      <point x="585.172" y="354.55" type="curve"/>
      <point x="513.571" y="318.373"/>
      <point x="453.375" y="259.746"/>
    </contour>
    <contour>
      <point x="674.547" y="559.976" type="curve"/>
      <point x="759.182" y="598.306"/>
      <point x="846.869" y="621"/>
      <point x="925" y="621" type="curve" smooth="yes"/>
      <point x="1002.27" y="621"/>
      <point x="1056.73" y="544.749"/>
      <point x="1134" y="474" type="curve"/>
      <point x="1144" y="468"/>
      <point x="1148" y="458"/>
      <point x="1148" y="446" type="curve" smooth="yes"/>
      <point x="1148" y="415"/>
      <point x="1122" y="372"/>
      <point x="1107" y="372" type="curve" smooth="yes"/>
      <point x="1025.22" y="372"/>
      <point x="974.217" y="412"/>
      <point x="903" y="412" type="curve" smooth="yes"/>
      <point x="862.266" y="412"/>
      <point x="815.193" y="410.788"/>
      <point x="766.575" y="404.989" type="curve"/>
      <point x="783.241" y="364.313"/>
      <point x="794" y="321.686"/>
      <point x="794" y="279" type="curve" smooth="yes"/>
      <point x="794" y="114"/>
      <point x="687" y="-9"/>
      <point x="446" y="-9" type="curve" smooth="yes"/>
      <point x="378" y="-9"/>
      <point x="292" y="28"/>
      <point x="292" y="120" type="curve" smooth="yes"/>
      <point x="292" y="243.498"/>
      <point x="386.328" y="369.93"/>
      <point x="513.521" y="464.888" type="curve"/>
      <point x="488.817" y="494.079"/>
      <point x="462.137" y="520.582"/>
      <point x="438" y="542" type="curve"/>
      <point x="256" y="270" type="line"/>
      <point x="256" y="270"/>
      <point x="215" y="199"/>
      <point x="117" y="199" type="curve" smooth="yes"/>
      <point x="66" y="199"/>
      <point x="48" y="226"/>
      <point x="48" y="260" type="curve" smooth="yes"/>
      <point x="48" y="295"/>
      <point x="89.0161" y="330.519"/>
      <point x="108" y="358" type="curve" smooth="yes"/>
      <point x="194.016" y="482.519"/>
      <point x="312.256" y="690.416"/>
      <point x="408" y="864" type="curve" smooth="yes"/>
      <point x="435.256" y="913.416"/>
      <point x="482" y="960"/>
      <point x="559" y="960" type="curve" smooth="yes"/>
      <point x="656" y="960"/>
      <point x="688" y="925"/>
      <point x="688" y="878" type="curve" smooth="yes"/>
      <point x="688" y="822"/>
      <point x="642" y="750"/>
      <point x="606" y="706" type="curve" smooth="yes"/>
      <point x="594" y="691"/>
      <point x="586" y="679"/>
      <point x="585" y="672" type="curve"/>
      <point x="595.059" y="655.235"/>
      <point x="633.399" y="614.581"/>
    </contour>
  </outline>
</glyph>
<glyph name="s.init" format="1">
  <advance width="1043"/>
  <outline>
    <contour>
      <point x="672.671" y="-16.8057" type="curve" smooth="yes"/>
      <point x="614.541" y="-16.8057"/>
      <point x="498.468" y="0.982523"/>
      <point x="498.468" y="68.5361" type="curve" smooth="yes"/>
      <point x="498.468" y="117.173"/>
      <point x="558.843" y="178.865"/>
      <point x="596.457" y="178.865" type="curve" smooth="yes"/>
      <point x="613.36" y="178.865"/>
      <point x="627.876" y="167.17"/>
      <point x="642.01" y="167.17" type="curve" smooth="yes"/>
      <point x="717.045" y="167.17"/>
      <point x="771" y="213.248"/>
      <point x="771" y="308" type="curve" smooth="yes"/>
      <point x="771" y="370.182"/>
      <point x="699.815" y="444.636"/>
      <point x="647" y="488" type="curve"/>
      <point x="545.692" y="394.493"/>
      <point x="359.55" y="298.87"/>
      <point x="238.945" y="298.87" type="curve" smooth="yes"/>
      <point x="230.034" y="298.87"/>
      <point x="221.41" y="300"/>
      <point x="213" y="300" type="curve" smooth="yes"/>
      <point x="154" y="300"/>
      <point x="133" y="327"/>
      <point x="133" y="361" type="curve" smooth="yes"/>
      <point x="133" y="395.881"/>
      <point x="152.82" y="433.254"/>
      <point x="164" y="459" type="curve"/>
      <point x="406.627" y="498.935"/>
      <point x="595.521" y="657.924"/>
      <point x="712" y="834" type="curve"/>
      <point x="772.423" y="907.577"/>
      <point x="839.988" y="957.496"/>
      <point x="909.678" y="957.496" type="curve" smooth="yes"/>
      <point x="977.486" y="957.496"/>
      <point x="996.295" y="894.204"/>
      <point x="996.295" y="845.304" type="curve" smooth="yes"/>
      <point x="996.295" y="780.408"/>
      <point x="984" y="718"/>
      <point x="937" y="687" type="curve" smooth="yes"/>
      <point x="842" y="623" type="line"/>
      <point x="882.067" y="571.37"/>
      <point x="991" y="473.671"/>
      <point x="991" y="372" type="curve" smooth="yes"/>
      <point x="991" y="323.667"/>
      <point x="982.349" y="274.305"/>
      <point x="960" y="227" type="curve"/>
      <point x="1092.01" y="296.539"/>
      <point x="1172.75" y="373.59"/>
      <point x="1253" y="448" type="curve" smooth="yes"/>
      <point x="1261.34" y="454.883"/>
      <point x="1270" y="457"/>
      <point x="1277" y="457" type="curve" smooth="yes"/>
      <point x="1304" y="457"/>
      <point x="1316" y="415"/>
      <point x="1316" y="366" type="curve" smooth="yes"/>
      <point x="1316" y="309"/>
      <point x="1305.76" y="287.215"/>
      <point x="1285" y="264" type="curve" smooth="yes"/>
      <point x="1186.38" y="152.107"/>
      <point x="897.051" y="-16.8057"/>
    </contour>
  </outline>
</glyph>
<glyph name="t.init" format="1">
  <advance width="888"/>
  <outline>
    <contour>
      <point x="682" y="922" type="line"/>
      <point x="627.314" y="878.471"/>
      <point x="582.878" y="846.247"/>
      <point x="550.564" y="816" type="curve"/>
      <point x="544.366" y="715.96"/>
      <point x="541" y="623.887"/>
      <point x="541" y="494" type="curve" smooth="yes"/>
      <point x="541" y="316"/>
      <point x="614" y="204"/>
      <point x="717" y="204" type="curve" smooth="yes"/>
      <point x="863" y="204"/>
      <point x="983" y="361"/>
      <point x="1060" y="440" type="curve" smooth="yes"/>
      <point x="1068" y="449"/>
      <point x="1078" y="454"/>
      <point x="1090" y="454" type="curve" smooth="yes"/>
      <point x="1123" y="454"/>
      <point x="1163" y="420"/>
      <point x="1163" y="369" type="curve" smooth="yes"/>
      <point x="1163" y="349"/>
      <point x="1157" y="325"/>
      <point x="1140" y="301" type="curve" smooth="yes"/>
      <point x="1024" y="136"/>
      <point x="881" y="-9"/>
      <point x="698" y="-9" type="curve" smooth="yes"/>
      <point x="393.731" y="-9"/>
      <point x="322.355" y="274.735"/>
      <point x="311.587" y="557.047" type="curve"/>
      <point x="209.942" y="471.217"/>
      <point x="101.689" y="392.319"/>
      <point x="-24" y="317" type="curve"/>
      <point x="-74.5324" y="274.846"/>
      <point x="-197.531" y="412.406"/>
      <point x="-141" y="451" type="curve" smooth="yes"/>
      <point x="77.4458" y="600.133"/>
      <point x="190.163" y="677.184"/>
      <point x="324.775" y="811.266" type="curve"/>
      <point x="331.244" y="849.62"/>
      <point x="339.529" y="886.997"/>
      <point x="349" y="922" type="curve"/>
      <point x="220" y="922"/>
      <point x="141" y="967"/>
      <point x="141" y="1019" type="curve" smooth="yes"/>
      <point x="141" y="1072"/>
      <point x="195" y="1080"/>
      <point x="268" y="1080" type="curve" smooth="yes"/>
      <point x="377" y="1080" type="line"/>
      <point x="425" y="1324"/>
      <point x="507" y="1589"/>
      <point x="651" y="1732" type="curve" smooth="yes"/>
      <point x="692" y="1772"/>
      <point x="734" y="1792"/>
      <point x="779" y="1792" type="curve" smooth="yes"/>
      <point x="913" y="1792"/>
      <point x="970" y="1637"/>
      <point x="970" y="1499" type="curve" smooth="yes"/>
      <point x="970" y="1329"/>
      <point x="868" y="1192"/>
      <point x="793" y="1080" type="curve"/>
      <point x="804" y="1079"/>
      <point x="819" y="1080"/>
      <point x="838" y="1080" type="curve" smooth="yes"/>
      <point x="986" y="1080" type="line" smooth="yes"/>
      <point x="1077" y="1080"/>
      <point x="1130" y="1075"/>
      <point x="1130" y="1001" type="curve" smooth="yes"/>
      <point x="1130" y="961"/>
      <point x="1103" y="922"/>
      <point x="1066" y="922" type="curve" smooth="yes"/>
    </contour>
    <contour>
      <point x="568" y="1080" type="curve"/>
      <point x="589" y="1081"/>
      <point x="608" y="1080"/>
      <point x="629" y="1080" type="curve"/>
      <point x="688" y="1178"/>
      <point x="753" y="1294"/>
      <point x="793" y="1408" type="curve" smooth="yes"/>
      <point x="804" y="1441"/>
      <point x="810" y="1469"/>
      <point x="810" y="1490" type="curve" smooth="yes"/>
      <point x="810" y="1532"/>
      <point x="800" y="1568"/>
      <point x="757" y="1568" type="curve" smooth="yes"/>
      <point x="650" y="1568"/>
      <point x="590" y="1178"/>
    </contour>
  </outline>
</glyph>
